<svg version="1.2" xmlns="http://www.w3.org/2000/svg" viewBox="0 0 170 185" width="170" height="185">
	<title>fish</title>
	<style>
		.s0 { fill: #263238 } 
		.s1 { fill: #ff725e } 
		.s2 { fill: #000000 } 
		.s3 { fill: #ffffff } 
		.s4 { fill: #e0e0e0 } 
	</style>
	<g id="&lt;Group&gt;">
		<path id="&lt;Path&gt;" class="s0" d="m90.2 92c-1.4-7.5-4.2-14.8-4.1-22.4l-11.7 20.3c6.2 6.4 10.2 14.8 11.3 23.6 5.5-5.3 5.9-14 4.5-21.5z"/>
		<path id="&lt;Path&gt;" class="s0" d="m41.6 38.8c-4.4 2.1-8.7 4.7-12.6 7.7-0.8 0.6-1.7 1.3-2.2 2.3-0.4 0.9-0.4 2.2 0.5 2.9 0.7 0.5 1.6 0.5 2.4 0.5 2.5-0.3 5-0.9 7.2-1.9"/>
		<path id="&lt;Path&gt;" class="s0" d="m28.1 63.8c-13.3 3.7-22.5 16.1-24.4 29.1-1.9 12.9-0.7 31.9 7.5 40.1 2.5-16 5.8-20 11.3-26.9"/>
		<path id="&lt;Path&gt;" class="s1" d="m98.6 5.8c0 0-0.4-4-8.1-2.4-7.6 1.6-47.3 19.7-63.7 60.6-16.5 40.9-4.5 66.7 16.9 83.1 26.3 20.1 66.8 13.3 66.8 13.3l-3.8-10.6c0 0-42.5-11.9-35.4-46.3 0 0 0.6-9.4 11.4-27.5 10.8-18.2 20.3-32.1 24.3-44.5 3.4-10.5 3.6-32.7-8.1-12.5-0.6 0.9 0.9-14.1-0.3-13.2z"/>
		<g id="&lt;Group&gt;" style="opacity: .3">
			<path id="&lt;Path&gt;" class="s2" d="m84.3 52.2c-7.2 14-20 23-23.2 38.3-3.3 15.4-1.3 32.7 9.1 44.5 7.4 8.3 18.1 13 28.9 15.7 2.6 0.7 5.5 1.2 8.2 0.8l-0.6-1.7c0 0-42.5-11.9-35.4-46.3 0 0 0.6-9.4 11.4-27.5 10.8-18.2 20.3-32.1 24.3-44.5 3.4-10.5 3.6-32.7-8.1-12.5-0.2 0.3-0.1-1.2-0.1-3.3l-8.6 14.5c-1.7 1.3-0.1 10.8-5.9 22z"/>
		</g>
		<path id="&lt;Path&gt;" class="s0" d="m60.3 84.7c-8 9.1-16.6 17.7-25.8 25.5 6.6 1.1 13.6-1 18.5-5.5 4.9-4.5 7.9-13.3 7.3-20z"/>
		<path id="&lt;Path&gt;" class="s3" d="m79.4 15l-1.6 0.1c-4.7 0.9-7.2 7.4-4.4 11.3 2.9 3.8 9.8 3.3 12.1-1 2.2-4.2-1.3-10.3-6.1-10.4z"/>
		<path id="&lt;Path&gt;" class="s0" d="m79.6 17l-1.1 0.1c-3.4 0.6-5.2 5.3-3.1 8 2 2.8 7 2.4 8.6-0.7 1.6-3-0.9-7.3-4.4-7.4z"/>
		<g id="&lt;Group&gt;">
			<path id="&lt;Path&gt;" class="s0" d="m84.4 49.1c0.1 0-0.3 0.5-1.1 1.1-0.8 0.6-2.2 1.4-3.9 2-3.5 1.3-9.2 1.6-14.2-1.5-5-3.3-7-8.7-7.2-12.4-0.2-1.8 0-3.4 0.3-4.4 0.2-1 0.5-1.5 0.5-1.5 0.2 0.1-0.6 2.3-0.1 5.9 0.4 3.5 2.5 8.5 7.1 11.5 4.6 2.9 10 2.8 13.3 1.7 3.5-1 5.2-2.6 5.3-2.4z"/>
		</g>
		<g id="&lt;Group&gt;">
			<path id="&lt;Path&gt;" class="s0" d="m81 55.6c0.1 0-0.3 0.5-1.1 1.1-0.9 0.6-2.2 1.4-3.9 2.1-3.5 1.2-9.2 1.6-14.2-1.6-5-3.3-7-8.7-7.2-12.4-0.2-1.8 0-3.3 0.3-4.4 0.2-1 0.4-1.5 0.5-1.5 0.2 0.1-0.6 2.3-0.1 5.9 0.4 3.5 2.5 8.5 7 11.5 4.7 3 10.1 2.8 13.4 1.8 3.5-1.1 5.2-2.7 5.3-2.5z"/>
		</g>
		<g id="&lt;Group&gt;">
			<path id="&lt;Path&gt;" class="s0" d="m70.3 65.9c0.1 0-0.2 0.4-0.8 0.9-0.7 0.5-1.7 1.1-3 1.6-2.7 1-7.1 1.3-11-1.2-3.8-2.5-5.3-6.7-5.5-9.5-0.1-1.5 0-2.6 0.3-3.4 0.2-0.8 0.4-1.2 0.4-1.2 0.2 0.1-0.4 1.8 0 4.5 0.4 2.7 1.9 6.4 5.4 8.7 3.5 2.3 7.6 2.2 10.1 1.4 2.7-0.8 4-2 4.1-1.8z"/>
		</g>
		<path id="&lt;Path&gt;" class="s0" d="m89.3 31.5c0 0-1.5-14.8-0.5-20.7 1-6 6.1-7.6 7.8-7.3 2.3 0.4 3 4.5 3 4.5 0 0 0 6.5-0.7 11z"/>
		<path id="&lt;Path&gt;" class="s0" d="m82.1 161.1c11.8-2.9 21.2-12.2 26.9-22.9 5.7-10.7 8.3-22.7 10.7-34.6 5.3 3.5 8.4 9.6 9.8 15.8 1.3 6.2 2.2 14.8 1.9 21.1 11.9-3.6 23.3-7.1 35.6-6.1-1.3 4.6-4.4 8.5-7.9 11.7-8.4 7.6-19.3 12-30.4 14.1-11.1 2.1-22.5 2-33.8 1.5"/>
		<g id="&lt;Group&gt;">
			<g id="&lt;Group&gt;" style="opacity: .3">
				<path id="&lt;Path&gt;" class="s3" d="m30 119.9c-4.7-12.2-4.5-25.9-1.9-38.8 7.3-34.9 33.4-65.3 66.7-78-1.1-0.1-2.5-0.1-4.3 0.3-7.6 1.6-47.3 19.7-63.7 60.6-16.5 40.9-4.5 66.7 16.9 83.1 5 3.9 10.6 6.7 16.3 8.8-12.4-10-24.4-21.2-30-36z"/>
			</g>
		</g>
	</g>
	<path id="&lt;Path&gt;" class="s4" d="m33.5 156.3c-1.9 17.3-0.3 19.3 3.4 23.9 2.3 2.9 4.6 2.7 5.9 2.9 1.6 0.3 3.2-1.3 3.6-2.9 0.4-1.7-0.1-3.4-0.5-5 4.2 2.2 8.7 4.5 13.5 4.4 4.8-0.1 9.8-3.5 10-8.3-5.2 2.2-11.2 2.5-16.6 0.8-5.3-1.7-10.1-5.3-13.1-10.1q-0.7 4.3-1.5 8.6c-2.5-4.4-4.1-9.3-4.7-14.3z"/>
</svg>