<svg xmlns="http://www.w3.org/2000/svg" xmlns:xlink="http://www.w3.org/1999/xlink" height="666.667" width="1000" xmlns:v="https://vecta.io/nano"><style><![CDATA[.B{fill:#1a2e35}.C{opacity:.3}.D{fill:#ff735d}.E{fill:#fff}.F{fill:#e1e1e1}.G{fill:#375a64}.H{fill:#ececec}.I{fill:#ffc19d}.J{fill:#f5f5f5}]]></style><defs><clipPath id="A"><path d="M0 500h750V0H0z"/></clipPath><clipPath id="B"><path d="M0 500h750V0H0z"/></clipPath><clipPath id="C"><path d="M0 500h750V0H0z"/></clipPath><clipPath id="D"><path d="M0 500h750V0H0z"/></clipPath><clipPath id="E"><path d="M0 500h750V0H0z"/></clipPath><clipPath id="F"><path d="M0 500h750V0H0z"/></clipPath><clipPath id="G"><path d="M0 500h750V0H0z"/></clipPath><clipPath id="H"><path d="M0 500h750V0H0z"/></clipPath><clipPath id="I"><path d="M0 500h750V0H0z"/></clipPath><clipPath id="J"><path d="M0 500h750V0H0z"/></clipPath><clipPath id="K"><path d="M561.991 182.384h26.811v-27.039h-26.811z"/></clipPath><clipPath id="L"><path d="M470.393 105.394h55.008V35.203h-55.008z"/></clipPath><clipPath id="M"><path d="M591.974 105.394h54.331V37.183h-54.331z"/></clipPath><clipPath id="N"><path d="M529.607 214.103h77.321v-28.4h-77.321z"/></clipPath><clipPath id="O"><path d="M510.63 305.476h75.01v-44.161h-75.01z"/></clipPath><clipPath id="P"><path d="M615.449 338.336h29.568v-27.713h-29.568z"/></clipPath><clipPath id="Q"><path d="M571.919 305.275h36.06V276.69h-36.06z"/></clipPath><clipPath id="R"><path d="M552.535 305.777h10.881V289.85h-10.881z"/></clipPath><clipPath id="S"><path d="M550.187 298.208h5.718v-14.761h-5.718z"/></clipPath><clipPath id="T"><path d="M198.307 312.603h24.698v-70.431h-24.698z"/></clipPath><clipPath id="U"><path d="M178.05 316.478h37.862v-76.447H178.05z"/></clipPath><clipPath id="V"><path d="M184.482 285.436h22.861v-13.859h-22.861z"/></clipPath><clipPath id="W"><path d="M184.644 269.04h1.596v-3.018h-1.596z"/></clipPath><clipPath id="X"><path d="M188.424 257.323h14.765v-8.463h-14.765z"/></clipPath><path id="Y" d="M205.744 58.558c0-1.136-5.336-2.057-11.919-2.057s-11.92.921-11.92 2.057 5.337 2.057 11.92 2.057 11.919-.921 11.919-2.057"/><path id="Z" d="M180.907 51.048c0-1.122-3.249-2.032-7.256-2.032s-7.256.91-7.256 2.032 3.249 2.032 7.256 2.032 7.256-.91 7.256-2.032"/><path id="a" d="M510.63 290.084l5.005 15.191 30.807-12.301 20.837 12.502 18.36-13.552s-31.475-30.383-36.502-30.601-18.361 4.153-19.017 3.934-19.49 24.827-19.49 24.827"/></defs><g transform="matrix(1.333333 0 0 -1.333333 0 666.66667)"><g clip-path="url(#A)"><path d="M486.154 433.949c-.652 1.741-1.317 3.506-2.414 5.007s-2.699 2.73-4.544 2.956-3.89-.77-4.491-2.529c-.265 3.964-.826 8.031-2.811 11.472s-5.686 6.146-9.651 5.903c-3.739-.229-6.94-3.006-8.719-6.302s-2.389-7.078-2.973-10.778c-1.417 1.739-4.41 1.192-5.889-.494s-1.854-4.045-2.168-6.266l44.174-.46z" class="F"/><g class="J"><path d="M153.312 342.158c-1.11 2.963-2.242 5.966-4.108 8.521s-4.594 4.646-7.734 5.031-6.619-1.311-7.642-4.304c-.451 6.745-1.407 13.666-4.783 19.523s-9.677 10.459-16.425 10.046c-6.363-.389-11.811-5.115-14.838-10.725s-4.066-12.046-5.06-18.342c-2.411 2.959-7.505 2.029-10.022-.841s-3.154-6.883-3.69-10.664l75.176-.783zm537.311 74.143c-1.11 2.963-2.242 5.966-4.108 8.521s-4.594 4.646-7.734 5.031-6.619-1.311-7.642-4.304c-.451 6.745-1.407 13.666-4.783 19.523s-9.677 10.459-16.425 10.046c-6.363-.389-11.811-5.115-14.838-10.725s-4.066-12.046-5.06-18.342c-2.412 2.959-7.505 2.029-10.022-.841s-3.154-6.883-3.69-10.664l75.176-.783zm-462.134-3.374c-.697 1.859-1.407 3.745-2.578 5.348s-2.884 2.916-4.854 3.158-4.155-.823-4.797-2.702c-.283 4.234-.883 8.578-3.002 12.254s-6.074 6.564-10.309 6.305c-3.994-.244-7.413-3.21-9.313-6.731s-2.552-7.56-3.176-11.513c-1.514 1.858-4.71 1.274-6.29-.528s-1.98-4.32-2.316-6.692l47.184-.492zM541.7 381.959c-.697 1.86-1.407 3.745-2.578 5.348s-2.884 2.916-4.854 3.158-4.155-.823-4.797-2.702c-.283 4.234-.883 8.578-3.002 12.254s-6.074 6.564-10.309 6.305c-3.994-.244-7.413-3.21-9.313-6.731s-2.552-7.56-3.176-11.513c-1.514 1.858-4.71 1.274-6.29-.528s-1.98-4.32-2.316-6.692l47.184-.492zm-91.152 9.435c-1.437 3.836-2.902 7.726-5.319 11.034s-5.949 6.016-10.015 6.514-8.571-1.697-9.896-5.573c-.583 8.735-1.821 17.697-6.193 25.281s-12.531 13.542-21.269 13.008c-8.239-.504-15.293-6.624-19.213-13.889s-5.265-15.597-6.552-23.75c-3.123 3.832-9.718 2.628-12.977-1.089s-4.085-8.913-4.778-13.808l97.344-1.014z"/></g><g class="F"><path d="M202.354 164.114c-.216 1.356-1.849 2.094-3.2 1.847s-2.46-1.179-3.499-2.077c-.088 1.886.964 3.606 1.744 5.325s1.273 3.86.18 5.4c-1.361 1.919-4.324 1.716-6.444.697a12.8 12.8 0 0 1-6.781-8.353c-1.071 5.475-3.833 10.608-7.813 14.519-1.638 1.609-4.022 3.095-6.1 2.117-2.166-1.019-2.444-4.139-1.4-6.294s2.971-3.729 4.404-5.646c4.488-6.006 3.055-15.573-2.997-19.999l29.883.101c-1.835 1.689-2.399 6.145-.825 8.08 1.126 1.384 3.128 2.521 2.848 4.283m3.092 25.464a2.001 2.001 0 1 0-4.002 0 2.001 2.001 0 1 0 4.002 0M145.53 241.05l-.328-.243c-1.126-1.457-1.575-3.39-1.3-5.205.173-1.147 1.735-1.386 2.248-.345.906 1.838.756 4.241-.62 5.793"/><path d="M154.826 219.87l-.27-.306c-.795-1.661-.829-3.645-.18-5.362.41-1.085 1.988-.991 2.271.133.5 1.988-.151 4.306-1.821 5.535m493.599-14.715s-.931 6.568-1.217 17.276l-.077 4.201.058 4.555c.008 3.15.229 6.507.417 10.043.514 7.06 1.39 14.804 2.81 22.853 1.472 8.042 3.348 15.608 5.327 22.407 1.054 3.38 2.016 6.604 3.106 9.56l1.533 4.29 1.535 3.911c3.998 9.938 7.157 15.77 7.157 15.77.008-.004-.028-.102-.107-.288l-.359-.821-1.426-3.135-1.041-2.259-1.156-2.725c-.813-1.961-1.807-4.166-2.726-6.677l-1.501-3.916c-.517-1.364-.979-2.81-1.501-4.292-1.07-2.955-2.015-6.178-3.054-9.554-1.949-6.791-3.806-14.34-5.274-22.363-1.417-8.03-2.306-15.752-2.844-22.795-.201-3.526-.438-6.876-.464-10.018l-.088-4.546.043-4.194c-.013-2.673.151-5.086.229-7.209l.135-2.956.19-2.481.245-3.435.05-.895c.009-.202.009-.306 0-.307"/><path d="M669.887 311.859c-2.223-7.463-5.042-14.713-8.578-21.518-.957-1.843-2.403-3.906-4.297-3.623-1.311.196-2.291 1.559-2.575 2.998s-.01 2.937.332 4.361c1.374 5.726 3.826 11.047 6.261 16.317.856 1.852 1.773 3.783 3.323 4.948s3.935 1.235 5.077-.414c0 0 1.027-1.154.457-3.069"/></g><path d="M660.492 196.84c3.886 8.181 9.218 23.677 7.777 31.458-9.222-3.459-18.156-15.851-25.523-24.433l25.9 58.995c-17.547-10.957-27.716-30.307-37.078-48.754a171.68 171.68 0 0 1 8.852 44.993c-9.744-7.837-16.622-19.161-19.084-31.42l8.413 78.149c-11.868-11.023-17.919-27.187-19.752-43.28s.155-32.35 2.141-48.425l-13.461 25.139c-1.022-16.499 2.079-31.606 10.55-45.802l59.618-.033c15.032 16.25 25.824 30.858 35.579 50.73-20.42-8.064-32.901-28.334-43.932-47.317" class="H"/><g class="F"><path d="M618.743 200.172c-.009-.001-.032.09-.068.269l-.147.798-.517 3.078-.361 2.226-.34 2.662-.72 6.501-.33 3.791-.236 4.118-.266 9.098c.004 6.411.281 13.462 1.011 20.827.776 7.363 1.933 14.325 3.228 20.605.705 3.127 1.34 6.108 2.103 8.856l1.065 3.985 1.09 3.646c.664 2.332 1.413 4.394 2.022 6.221l.873 2.537.804 2.107 1.129 2.909.306.751c.071.169.112.253.121.25s-.016-.094-.072-.269l-.257-.77-1.037-2.941-.76-2.12-.831-2.547c-.581-1.833-1.306-3.899-1.945-6.234l-1.056-3.648c-.364-1.269-.674-2.608-1.033-3.985-.744-2.747-1.362-5.724-2.052-8.847-1.266-6.27-2.406-13.216-3.18-20.559-.729-7.346-1.019-14.378-1.049-20.773.044-3.198.046-6.238.218-9.078l.205-4.112.295-3.786c.154-2.415.444-4.586.643-6.498l.297-2.663.316-2.231.419-3.09.097-.806c.019-.182.024-.277.015-.278m6.119 1.646c-.018 0-.032.209-.042.607l-.02 1.743.049 2.758.188 3.649 1.065 9.453c.575 3.535 1.348 7.401 2.4 11.401a116.01 116.01 0 0 0 3.606 11.083c.679 1.658 1.29 3.247 1.971 4.689l.957 2.097.952 1.902c.589 1.22 1.203 2.281 1.724 3.222.512.946.989 1.74 1.399 2.378l.933 1.472c.218.333.34.504.355.494s-.076-.198-.265-.549l-.849-1.52a46.5 46.5 0 0 1-1.317-2.415c-.496-.951-1.085-2.02-1.65-3.246l-.919-1.909-.925-2.101c-.661-1.442-1.254-3.031-1.918-4.686-1.247-3.343-2.479-7.069-3.55-11.045-1.048-3.981-1.832-7.827-2.43-11.343-.556-3.524-.96-6.714-1.172-9.405-.14-1.344-.194-2.564-.264-3.634a59.4 59.4 0 0 1-.137-2.749l-.078-1.739c-.024-.398-.045-.607-.063-.607m43.427 60.443c.014-.012-.13-.213-.416-.587l-1.271-1.617-4.605-5.992c-1.912-2.553-4.097-5.662-6.428-9.175-2.307-3.529-4.746-7.473-7.138-11.71-2.375-4.249-4.473-8.385-6.287-12.193-1.787-3.819-3.305-7.303-4.49-10.264l-2.72-7.051-.719-1.926c-.17-.438-.268-.666-.285-.66s.047.244.185.694l.628 1.959c.545 1.702 1.416 4.138 2.569 7.12 1.144 2.985 2.629 6.491 4.398 10.332 1.794 3.828 3.886 7.983 6.267 12.244 2.398 4.249 4.857 8.196 7.192 11.72 2.359 3.508 4.58 6.602 6.534 9.132 1.946 2.536 3.573 4.548 4.743 5.899l1.346 1.556c.313.351.483.531.497.519"/><path d="M666.142 226.126c.125-.072-3.567-6.698-8.244-14.798s-8.571-14.611-8.696-14.539 3.566 6.697 8.245 14.799l8.695 14.538m36.264 14.138c.113-.09-7.917-10.36-17.932-22.937l-18.341-22.614c-.112.09 7.915 10.358 17.934 22.939l18.339 22.612m-86.33-44.725c-.03-.019-.391.494-1.018 1.441l-2.519 4.095c-2.045 3.508-4.621 8.51-6.923 14.27-2.294 5.766-3.867 11.17-4.796 15.122-.467 1.976-.801 3.585-.99 4.705-.196 1.118-.287 1.739-.252 1.745s.194-.601.451-1.704c.249-1.105.637-2.698 1.148-4.657a129.87 129.87 0 0 1 4.923-15.018 129.76 129.76 0 0 1 6.76-14.282l2.37-4.17c.573-.977.876-1.528.846-1.547m-529.114 8.087s.809 5.712 1.059 15.024l.066 3.654-.05 3.961-.363 8.733c-.446 6.141-1.208 12.875-2.444 19.875-1.28 6.994-2.911 13.573-4.632 19.486-.917 2.939-1.754 5.744-2.702 8.314l-1.332 3.73-1.335 3.402c-3.477 8.642-6.224 13.714-6.224 13.714-.007-.003.024-.088.092-.25l.313-.714 1.24-2.726.906-1.965 1.005-2.369c.707-1.706 1.571-3.624 2.37-5.807l1.305-3.406c.45-1.186.852-2.444 1.306-3.732.93-2.57 1.752-5.373 2.656-8.309 1.694-5.906 3.309-12.471 4.587-19.448 1.232-6.983 2.004-13.699 2.473-19.824.175-3.066.381-5.979.403-8.712l.077-3.953-.037-3.648c.011-2.324-.132-4.423-.2-6.269l-.117-2.571-.165-2.157-.213-2.988-.044-.778c-.008-.176-.008-.266 0-.267"/><path d="M68.297 296.422c1.933-6.49 4.385-12.795 7.46-18.713.832-1.603 2.09-3.397 3.737-3.151 1.14.171 1.992 1.356 2.239 2.607s.009 2.555-.288 3.793c-1.196 4.979-3.328 9.606-5.446 14.19-.744 1.611-1.541 3.29-2.89 4.303s-3.421 1.074-4.415-.36c0 0-.893-1.004-.397-2.669"/></g><path d="M76.467 196.395c-3.38 7.114-8.016 20.59-6.763 27.357 8.02-3.007 15.789-13.784 22.196-21.248L69.376 253.81c15.26-9.529 24.103-26.357 32.245-42.4-4.3 12.621-6.897 25.82-7.698 39.128 8.474-6.815 14.455-16.663 16.596-27.324l-7.316 67.963c10.321-9.586 15.583-23.643 17.177-37.639s-.135-28.133-1.861-42.113l11.705 21.863c.889-14.35-1.807-27.487-9.174-39.832l-51.847-.029c-13.073 14.132-22.458 26.836-30.942 44.117 17.759-7.013 28.613-24.641 38.206-41.149" class="H"/><g class="F"><path d="M112.775 199.293c.008-.001.028.078.059.234l.128.694.449 2.676.314 1.937.297 2.314.626 5.654.287 3.297.204 3.581.232 7.912c-.003 5.576-.244 11.707-.879 18.112a185.62 185.62 0 0 1-2.807 17.919c-.614 2.72-1.166 5.312-1.83 7.702l-.925 3.466-.949 3.171c-.577 2.028-1.229 3.821-1.758 5.41l-.759 2.206-.699 1.832-.982 2.53-.266.654c-.062.146-.098.219-.105.217s.014-.082.062-.234l.224-.67.901-2.557.661-1.844.723-2.215c.506-1.594 1.136-3.391 1.691-5.422l.919-3.172c.316-1.104.586-2.268.899-3.465.646-2.389 1.183-4.978 1.784-7.694 1.101-5.453 2.092-11.493 2.765-17.88.634-6.388.886-12.503.913-18.065-.039-2.781-.041-5.425-.19-7.895l-.178-3.575-.257-3.293c-.134-2.1-.386-3.988-.559-5.651l-.259-2.316-.274-1.94-.365-2.687-.084-.701c-.016-.159-.021-.241-.013-.242m-5.322 1.432c.016 0 .028.182.037.528l.017 1.516-.043 2.398-.164 3.174c-.143 2.351-.462 5.14-.926 8.22-.499 3.075-1.172 6.437-2.087 9.915-.936 3.474-2.025 6.727-3.135 9.638-.591 1.442-1.122 2.825-1.715 4.078l-.832 1.824-.828 1.654c-.512 1.061-1.046 1.984-1.499 2.802a32.41 32.41 0 0 1-1.216 2.068l-.812 1.28c-.19.29-.296.438-.309.43s.067-.173.231-.477l.738-1.322a40.24 40.24 0 0 0 1.146-2.1c.43-.827.943-1.757 1.434-2.824l.799-1.659.805-1.827c.575-1.255 1.09-2.637 1.668-4.076 1.084-2.907 2.156-6.147 3.087-9.605.911-3.463 1.593-6.807 2.113-9.865.484-3.064.835-5.839 1.019-8.179.122-1.168.169-2.229.23-3.16a52.38 52.38 0 0 0 .12-2.391l.068-1.512c.02-.346.038-.528.054-.528m-37.766 52.563c-.012-.01.113-.186.362-.51l1.105-1.407 4.005-5.21 5.59-7.98c2.006-3.069 4.128-6.499 6.208-10.184 2.065-3.695 3.89-7.292 5.467-10.603 1.554-3.321 2.874-6.351 3.905-8.926 1.038-2.573 1.841-4.671 2.365-6.132l.626-1.675c.148-.381.232-.579.247-.574s-.041.212-.161.603l-.546 1.705c-.473 1.48-1.231 3.598-2.233 6.191-.995 2.596-2.288 5.645-3.825 8.985-1.561 3.33-3.38 6.943-5.45 10.648a169.03 169.03 0 0 1-6.255 10.193c-2.052 3.051-3.983 5.741-5.682 7.941-1.693 2.205-3.107 3.955-4.125 5.13l-1.171 1.353c-.272.306-.42.462-.432.452"/><path d="M71.554 221.863c-.108-.063 3.102-5.825 7.169-12.869l7.563-12.644c.108.063-3.102 5.824-7.17 12.87l-7.562 12.643m-31.537 12.296c-.098-.078 6.885-9.01 15.594-19.947l15.951-19.666c.098.077-6.884 9.007-15.596 19.948l-15.949 19.665m75.077-38.895c.026-.017.34.43.886 1.253l2.19 3.561c1.779 3.051 4.019 7.401 6.021 12.411 1.994 5.014 3.362 9.713 4.17 13.15.406 1.719.697 3.118.861 4.092.171.972.25 1.512.22 1.518s-.169-.523-.393-1.483c-.217-.961-.554-2.346-.998-4.049-.886-3.407-2.295-8.069-4.281-13.06-1.993-4.987-4.177-9.34-5.879-12.421l-2.061-3.626c-.499-.85-.762-1.329-.736-1.346"/></g><g class="H"><path d="M330.947 39.068c0-3.46-17.699-6.265-39.531-6.265s-39.532 2.805-39.532 6.265 17.699 6.265 39.532 6.265 39.531-2.805 39.531-6.265m153.41-4.199c0-2.189-11.195-3.963-25.004-3.963s-25.005 1.774-25.005 3.963 11.195 3.963 25.005 3.963 25.004-1.775 25.004-3.963m130.197-2.085c0-2.188-11.195-3.963-25.004-3.963s-25.005 1.775-25.005 3.963 11.195 3.963 25.005 3.963 25.004-1.774 25.004-3.963"/><use xlink:href="#Y"/><use xlink:href="#Z"/><path d="M400.233 56.762c0-1.136-5.336-2.057-11.919-2.057s-11.92.921-11.92 2.057 5.337 2.057 11.92 2.057 11.919-.921 11.919-2.057m273.876-7.771c0-1.136-5.336-2.057-11.919-2.057s-11.919.921-11.919 2.057 5.336 2.057 11.919 2.057 11.919-.921 11.919-2.057m-298.713.261c0-1.122-3.249-2.032-7.256-2.032s-7.256.91-7.256 2.032 3.249 2.032 7.256 2.032 7.256-.91 7.256-2.032M162.208 38.523c0-1.675-8.57-3.033-19.141-3.033s-19.141 1.358-19.141 3.033 8.569 3.033 19.141 3.033 19.141-1.358 19.141-3.033"/></g></g><g clip-path="url(#B)" class="J"><path d="M66.279 366.049l1.542 3.56c12.996 30.009 41.086 50.886 73.403 53.269 4.155.306 8.332.313 12.497.004 29.988-2.228 58.365-20.768 72.753-47.534 8.462-15.742 12.817-34.608 26.354-46.164 17.619-15.04 43.6-12.013 66.28-8.169s48.688 6.806 66.242-8.312c10.993-9.468 16.124-24.377 17.343-38.915 3.227-38.489-18.697-76.318-50.22-97.959s-71.182-28.648-109.268-26.276c-53.354 3.321-106.679 25.267-142.462 65.572s-51.615 99.747-34.464 150.924m611.174-8.93c0-33.69-27.312-61.002-61.002-61.002s-61.002 27.312-61.002 61.002 27.312 61.002 61.002 61.002 61.002-27.312 61.002-61.002"/></g><g clip-path="url(#C)" class="B"><path d="M706.161 89.373c0-.144-150.836-.26-336.859-.26l-336.891.26c0 .144 150.803.26 336.891.26l336.859-.26"/></g><g clip-path="url(#D)" class="B"><path d="M721.781 194.535c0-.144-156.551-.26-349.621-.26l-349.655.26c0 .144 156.518.26 349.655.26l349.621-.26"/></g><g clip-path="url(#E)" class="B"><path d="M403.008 183.848c0-.144-21.488-.261-47.988-.261l-47.992.261c0 .144 21.483.26 47.992.26l47.988-.26m45.213-10.666c0-.144-21.488-.26-47.988-.26l-47.992.26c0 .144 21.483.26 47.992.26l47.988-.26m-229.754-21.086c0-.144-14.798-.26-33.048-.26l-33.051.26c0 .144 14.795.26 33.051.26l33.048-.26m390.869-46.702c0-.144-61.115-.26-136.486-.26l-136.499.26c0 .144 61.102.26 136.499.26l136.486-.26"/></g><path d="M251.868 40.663l-8.343 11.09 2.015 12.69 33.722 14.367 26.82-5.979 11.124-9.661-10.46-24.241-24.275-1.542z" fill="#fafafa"/><path d="M243.525 51.754l35.444-7.566 2.838-6.801-29.939 3.277z" class="H"/><g clip-path="url(#F)"><path d="M279.025 44.188s17.519 9.109 23.993 8.445l.789-13.883-21.945-1.362z" class="J"/><path d="M303.751 38.749l-.788 13.883 14.243 10.539-10.46-24.242z" class="F"/><path d="M251.868 40.663h.563l1.599-.146 6.114-.597 22.349-2.252 24.275 1.599-.225-.158 10.426 24.241.079-.326-9.097 7.882-2.038 1.767.135-.067-26.809 6.001h.169L245.63 64.296l.124.158-2.072-12.678v.124l6.069-8.298 1.588-2.173.405-.563a2.34 2.34 0 0 0 .124-.203l-.146.169-.428.529-1.633 2.06-6.26 8.186v.056.068l1.97 12.689v.113h.102l33.699 14.434h.079.09L306.149 73h.079v-.056l2.027-1.757 9.097-7.881.158-.147-.079-.191-10.482-24.23-.068-.147h-.158l-24.286-1.497-22.406 2.499-6.08.71-1.565.191c-.178.038-.352.095-.518.169" class="B"/></g><g clip-path="url(#G)" class="B"><path d="M102.546 404.036c-.014-.039-.682.236-1.945.516-1.255.276-3.141.52-5.427.209-2.27-.304-4.959-1.216-7.313-3.154-2.35-1.903-4.36-4.782-5.163-8.197l-.023-.091-.15-.585-.225.555a16.3 16.3 0 0 1-6.181 7.463c-2.539 1.67-5.27 2.361-7.548 2.517-2.293.16-4.154-.169-5.393-.494l-1.917-.58c-.006.012.155.09.469.226a11.7 11.7 0 0 0 1.407.502c1.239.373 3.117.751 5.451.624 2.318-.122 5.119-.799 7.728-2.49 2.601-1.66 5.001-4.291 6.35-7.621l-.376-.03.024.094c.826 3.511 2.899 6.456 5.318 8.389 2.426 1.971 5.192 2.876 7.506 3.149 2.333.28 4.241-.012 5.499-.337.632-.159 1.113-.323 1.431-.453l.478-.212m54.265 26.784c-.012-.033-.384.107-1.077.25a8.68 8.68 0 0 1-2.97.086 8.01 8.01 0 0 1-3.979-1.736 8.29 8.29 0 0 1-2.804-4.465l-.013-.049-.15-.585-.225.555c-.715 1.766-1.984 3.172-3.362 4.069-1.38.914-2.867 1.297-4.111 1.391-1.252.095-2.271-.075-2.953-.243l-1.064-.286c-.005.013.081.061.252.142a5.9 5.9 0 0 0 .771.292c.681.216 1.718.435 3.012.372 1.284-.059 2.84-.428 4.29-1.363 1.446-.917 2.781-2.376 3.531-4.227l-.376-.03.014.052c.459 1.953 1.613 3.587 2.96 4.658 1.35 1.091 2.889 1.587 4.171 1.73 1.294.148 2.349-.024 3.041-.213.348-.094.612-.189.785-.266s.262-.121.257-.134m-35.479 12.188c.024-.025-.371-.426-1.043-1.183a25.65 25.65 0 0 1-2.547-3.438c-1.924-3.026-3.848-7.849-3.782-13.383l-.001-.168-.393-.032c-.408 2.699-1.309 5.177-2.446 7.247-1.135 2.077-2.467 3.763-3.726 5.033s-2.404 2.171-3.229 2.738-1.302.857-1.284.888c.007.012.132-.049.365-.175.229-.133.586-.303 1.004-.586.857-.532 2.042-1.405 3.341-2.669s2.676-2.954 3.846-5.054a21.91 21.91 0 0 0 2.52-7.366l-.393-.032.002.171c-.068 5.63 1.935 10.516 3.94 13.537.998 1.531 1.958 2.663 2.67 3.393.343.376.648.632.84.818.198.181.306.271.316.261"/></g><g clip-path="url(#H)"><g class="B"><path d="M377.694 206.146c-.009.001-.009.105 0 .307l.05.895.245 3.435.19 2.481.134 2.957.23 7.208.043 4.194-.088 4.546c-.026 3.142-.263 6.492-.464 10.018-.539 7.043-1.427 14.766-2.844 22.795-1.468 8.023-3.325 15.572-5.274 22.363-1.039 3.376-1.984 6.599-3.054 9.554l-1.501 4.292-1.501 3.917c-.919 2.51-1.913 4.715-2.726 6.677l-1.156 2.724-1.041 2.259-1.426 3.135-.359.821c-.079.186-.115.284-.107.288 0 0 3.159-5.832 7.157-15.77l1.535-3.911c.529-1.363 1.001-2.809 1.533-4.29 1.09-2.956 2.052-6.18 3.106-9.561 1.979-6.798 3.855-14.363 5.327-22.406 1.42-8.049 2.296-15.793 2.81-22.853.188-3.536.409-6.893.417-10.043l.058-4.555-.077-4.201c-.286-10.707-1.217-17.276-1.217-17.276m-53.115 133.608c.007.006.092-.083.252-.262l.699-.802 2.614-3.149c2.223-2.771 5.315-6.895 8.696-12.282 3.393-5.376 7.052-12.027 10.474-19.709 3.448-7.669 6.605-16.383 9.257-25.713 5.299-18.692 7.647-36.174 9.003-48.79l.952-8.512c.34-2.496.747-4.628 1.18-6.346s.859-3.028 1.173-3.906l.37-.996c.082-.225.12-.342.112-.346 0 0-.926 1.755-1.852 5.198-.465 1.718-.903 3.855-1.272 6.355-.374 2.499-.667 5.36-1.029 8.512-1.448 12.597-3.851 30.042-9.138 48.688-2.645 9.309-5.78 18.002-9.194 25.661-3.389 7.671-7.003 14.322-10.349 19.709-3.332 5.399-6.372 9.547-8.543 12.352-1.067 1.419-1.953 2.475-2.534 3.207l-.66.835c-.146.19-.218.29-.211.296"/></g><g class="D"><path d="M357.217 314.169c2.223-7.463 5.042-14.713 8.578-21.518.957-1.843 2.403-3.906 4.297-3.623 1.311.196 2.291 1.559 2.575 2.998s.01 2.937-.332 4.361c-1.374 5.726-3.826 11.047-6.261 16.317-.856 1.852-1.773 3.783-3.323 4.948s-3.935 1.235-5.077-.414c0 0-1.027-1.154-.457-3.069m-31.133 18.328c3.525-6.943 7.598-13.57 12.297-19.631 1.273-1.641 3.065-3.412 4.878-2.794 1.254.428 1.974 1.945 1.995 3.411s-.517 2.892-1.108 4.231c-2.379 5.387-5.746 10.181-9.086 14.93-1.174 1.668-2.423 3.404-4.157 4.272s-4.092.509-4.92-1.318c0 0-.804-1.32.101-3.101"/></g><path d="M352.211 197.948c-3.886 8.181-9.218 23.677-7.777 31.458 9.222-3.459 18.156-15.851 25.523-24.433l-25.9 58.995c17.547-10.957 27.716-30.307 37.078-48.754a171.68 171.68 0 0 0-8.852 44.993c9.744-7.837 16.622-19.161 19.084-31.42l-8.413 78.149c11.868-11.023 17.919-27.187 19.752-43.28s-.155-32.35-2.141-48.425l13.461 25.139c1.022-16.499-2.078-31.606-10.55-45.802l-59.618-.033c-15.032 16.25-25.824 30.858-35.579 50.73 20.42-8.064 32.901-28.334 43.932-47.317" class="G"/><g class="B"><path d="M393.961 201.28c-.009.001-.004.096.015.278l.096.806.42 3.09.315 2.231.298 2.663.642 6.498.296 3.787.205 4.111.218 9.078c-.03 6.395-.321 13.427-1.049 20.773-.775 7.343-1.914 14.289-3.18 20.559-.691 3.123-1.309 6.1-2.052 8.847l-1.033 3.985-1.056 3.648c-.64 2.335-1.364 4.401-1.945 6.234l-.831 2.547-.761 2.12-1.036 2.941-.257.77c-.056.175-.08.266-.072.269s.05-.081.121-.25l.306-.751 1.129-2.909.804-2.107.873-2.537c.608-1.827 1.358-3.889 2.021-6.221l1.091-3.646c.374-1.269.695-2.608 1.064-3.985.763-2.748 1.399-5.729 2.104-8.856 1.294-6.28 2.452-13.242 3.228-20.605.73-7.365 1.007-14.416 1.011-20.827-.058-3.205-.076-6.252-.267-9.098l-.235-4.118-.33-3.791c-.177-2.418-.494-4.59-.72-6.501l-.341-2.662-.361-2.226-.516-3.078-.147-.798c-.036-.179-.059-.27-.068-.269m-6.12 1.647c-.018 0-.039.209-.063.607l-.078 1.739-.137 2.749-.265 3.634-1.171 9.405c-.598 3.516-1.382 7.362-2.43 11.343-1.071 3.976-2.303 7.702-3.55 11.045-.664 1.655-1.257 3.244-1.918 4.686l-.926 2.101-.918 1.909c-.565 1.226-1.154 2.295-1.65 3.246a46.5 46.5 0 0 1-1.317 2.415l-.849 1.52c-.189.351-.281.539-.265.549s.137-.161.355-.494l.933-1.472c.41-.638.887-1.432 1.399-2.378.521-.941 1.135-2.002 1.724-3.222l.952-1.902.957-2.097c.681-1.442 1.292-3.031 1.971-4.689a116.01 116.01 0 0 0 3.606-11.083c1.052-4 1.825-7.866 2.4-11.401.532-3.542.899-6.749 1.065-9.453.116-1.349.145-2.574.188-3.649a45.47 45.47 0 0 0 .049-2.758l-.02-1.743c-.01-.398-.024-.607-.042-.607m-43.427 60.442c.014.012.184-.167.496-.519l1.347-1.556 4.743-5.899c1.954-2.53 4.175-5.624 6.534-9.132 2.335-3.523 4.794-7.471 7.192-11.72 2.381-4.261 4.473-8.416 6.267-12.244 1.769-3.84 3.254-7.347 4.398-10.332 1.153-2.981 2.024-5.418 2.569-7.119l.628-1.96c.138-.45.202-.688.185-.694s-.115.222-.285.66l-.719 1.927c-.603 1.679-1.526 4.092-2.72 7.05-1.185 2.962-2.703 6.445-4.49 10.265-1.814 3.807-3.912 7.943-6.287 12.192-2.392 4.237-4.831 8.181-7.138 11.71-2.331 3.514-4.516 6.622-6.428 9.176-1.904 2.558-3.485 4.602-4.605 5.991l-1.271 1.617c-.286.374-.43.575-.416.587"/><path d="M346.561 227.234c.125.072 4.018-6.438 8.695-14.538s8.369-14.727 8.244-14.799-4.017 6.436-8.695 14.539l-8.244 14.798m-36.264 14.138c.112.09 8.324-10.035 18.339-22.612l17.934-22.939c-.113-.09-8.323 10.033-18.341 22.615l-17.932 22.936m86.331-44.725c-.03.019.273.57.846 1.548l2.37 4.169a129.76 129.76 0 0 1 6.76 14.282c2.284 5.74 3.905 11.101 4.922 15.018l1.149 4.657c.257 1.103.416 1.711.451 1.704s-.056-.627-.252-1.745c-.189-1.12-.523-2.729-.99-4.705-.93-3.952-2.502-9.356-4.796-15.121-2.302-5.761-4.878-10.763-6.923-14.271-1.021-1.755-1.886-3.153-2.519-4.095-.627-.947-.988-1.46-1.018-1.441"/></g></g><g clip-path="url(#I)"><g class="B"><path d="M181.917 116.076c0-.144-24.58-.26-54.894-.26l-54.9.26c0 .144 24.575.26 54.9.26l54.894-.26m-65.319-7.743c0-.144-9.957-.26-22.236-.26l-22.239.26c0 .144 9.955.26 22.239.26l22.236-.26"/><path d="M82.268 165.845c.008.004.063-.098.161-.301l.424-.905 1.584-3.502 5.579-12.986c4.619-11.005 10.729-26.32 17.224-43.33l16.046-43.788 4.559-13.377 1.18-3.657.295-.955c.064-.216.092-.328.083-.331s-.053.104-.134.314l-.343.939-1.273 3.624-4.714 13.32-16.186 43.725-17.078 43.375-5.424 13.047-1.494 3.539-.377.926c-.082.21-.12.319-.112.323"/></g><path d="M96.169 133.552l-1.142-.468a4.16 4.16 0 0 0-5.426 2.269l-8.409 20.497a4.16 4.16 0 0 0 2.269 5.426l1.142.469a4.16 4.16 0 0 0 5.426-2.27l8.409-20.497a4.16 4.16 0 0 0-2.269-5.426" class="D"/><path d="M124.637 189.44c.009.001.031-.126.066-.374l.144-1.103.501-4.251c.383-3.697.85-9.057 1.268-15.689.869-13.264 1.481-31.616 1.907-51.885l.699-51.921.163-15.733.04-4.278-.003-1.113c-.003-.251-.009-.379-.018-.379s-.021.128-.035.378l-.049 1.112-.138 4.276-.329 15.732-.851 51.915-1.754 51.874-1.102 15.691-.403 4.258-.092 1.11c-.018.25-.023.379-.014.38" class="B"/><path d="M128.501 154.494l-1.229-.115a4.16 4.16 0 0 0-4.527 3.755l-2.057 22.06a4.16 4.16 0 0 0 3.755 4.527l1.229.114a4.16 4.16 0 0 0 4.527-3.755l2.057-22.059a4.16 4.16 0 0 0-3.755-4.527" class="D"/><path d="M133.178 47.83a134.28 134.28 0 0 1 2.79 46.614c-7.729-13.259-11.403-28.845-10.41-44.16-6.28 9.392-14.578 18.717-25.728 20.538 10.005-8.789 18.025-20.294 24.807-31.754h14.564l8.82 22.328c-6.194-2.836-11.463-7.651-14.843-13.566" class="G"/></g><g clip-path="url(#J)"><path d="M561.433 172.922c-.235-.811 4.24-29.075 9.657-39.438s16.487-22.376 19.078-22.376 7.439-3.583 7.439-3.583l26.043 10.851-3.334 6.393s2.355 5.653-2.591 12.483-12.954 9.657-13.19 14.132.942 13.163 1.884 21.538.236 30.043.707 31.692-42.631-3.297-42.631-3.297z" class="B"/><g clip-path="url(#K)" class="C"><path d="M564.447 155.345l4.51 9.203 19.845 17.837-26.811-14.22z"/></g><g class="B"><path d="M546.137 231.72c-1.205-1.807-49.404-60.851-50.609-69.285s-10.242-15.062-4.217-36.752c0 0-2.625-5.861-2.053-10.336s1.751-5.417 1.515-7.301.943-7.302.943-7.302 31.796-1.648 31.796 0 .943 7.066.943 7.066 7.065 6.36 4.946 10.364-7.302 8.95-4.946 11.776 6.594 2.12 7.772 4.24-.942 4.475 1.178 6.359 9.656 1.884 10.834 4.24 7.773 12.718 10.599 15.78 7.537 5.297 7.537 5.297 23.24 12.574 28.97 21.554c4.434 6.949 22.611 16.722 27.557 27.086s8.48 28.97 8.48 28.97l-78.668 2.355z"/><path d="M487.107 105.394c3.063-18.327 7.024-35.237 5.597-52.355 0 0 .519-2.698-6.979-5.237-8.048-2.726-16.467-5.53-15.206-12.599l49.766.044 5.116 68.676z"/></g><path d="M470.519 35.203v2.643h49.959l-.193-2.599z" class="G"/><path d="M590.382 108.531c9.371-16.046 19.078-30.447 23.821-46.956 0 0 .524-2.18-5.584-7.215-6.556-5.406-13.431-11.017-9.742-17.177l47.428 17.552-19.602 66.018z" class="B"/><g class="G"><path d="M598.878 37.183l-.939 2.471 47.624 17.579.742-2.498zm-1.976 153.633c.025-.026-.376-.459-1.124-1.221l-3.26-3.134c-2.803-2.592-6.829-6.017-11.538-9.455-4.715-3.435-9.207-6.222-12.532-8.099-1.662-.94-3.023-1.671-3.98-2.145-.954-.48-1.489-.73-1.506-.698s.487.342 1.41.876l3.891 2.285c3.269 1.954 7.712 4.78 12.41 8.201 4.692 3.427 8.74 6.793 11.599 9.309l3.365 3.007c.791.716 1.24 1.1 1.265 1.074m-75.736-57.358c.003-.036-.387-.108-1.094-.207l-3.003-.37-4.459-.484-2.635-.268c-.888-.123-1.96-.049-2.505-.651-.268-.306-.341-.723-.109-.983.228-.278.674-.415 1.107-.565l2.502-.872 4.226-1.505 2.834-1.057 1.017-.455c-.012-.034-.397.061-1.082.263l-2.888.901-4.262 1.399-2.512.844c-.417.154-.938.26-1.343.719-.194.228-.295.565-.249.866a1.51 1.51 0 0 0 .366.786c.397.453.957.6 1.44.675l1.408.143 2.639.238 4.47.372 3.018.206 1.114.005m.992 14.804c0-.045-.189-.04-.447-.184-.249-.149-.542-.505-.624-1.029-.103-.52.141-1.123.683-1.604.525-.485 1.28-.842 2.067-1.236l5.77-2.755c-.027-.066-.717.135-1.811.525a41.09 41.09 0 0 0-4.189 1.763c-.787.396-1.576.776-2.168 1.356-.294.285-.525.623-.656.975-.137.369-.129.74-.057 1.048.148.625.563 1.022.899 1.14.347.112.54.024.533.001m95.439-23.302c.089-.096-2.074-2.108-5.213-3.919-3.132-1.827-5.952-2.705-5.991-2.58-.056.146 2.644 1.23 5.73 3.03l5.474 3.469m-92.911-21.246c-.003-.036-.526-.022-1.467.034l-3.983.261-13.14.745-13.158.414-3.99.09-1.464.095s.521.073 1.463.108 2.308.063 3.994.075c3.373.024 8.034-.036 13.178-.262s9.789-.578 13.147-.898l3.972-.426c.936-.118 1.451-.2 1.448-.236m101.311 16.843c.014-.033-.457-.263-1.32-.65l-3.686-1.567c-3.129-1.284-7.493-2.959-12.375-4.633s-9.36-3.025-12.619-3.929l-3.872-1.023c-.919-.223-1.432-.33-1.441-.295s.485.208 1.387.491l3.823 1.18 12.553 4.069a427.03 427.03 0 0 1 12.41 4.482l3.743 1.412c.887.33 1.383.496 1.397.463"/></g><g clip-path="url(#L)" class="C E"><path d="M487.107 105.394c3.063-18.327 7.024-35.237 5.597-52.355 0 0 .519-2.698-6.979-5.237-8.048-2.726-16.467-5.53-15.206-12.599l49.766.044 5.116 68.676-1.517.056.176 1.415z"/></g><g clip-path="url(#M)" class="C E"><path d="M591.974 105.394c9.371-16.046 17.486-27.31 22.23-43.819 0 0 .524-2.18-5.584-7.215-6.557-5.406-13.431-11.017-9.742-17.177l47.427 17.552-15.032 50.629z"/></g><g clip-path="url(#N)" class="C"><path d="M529.607 210.839s49.753-24.307 77.321-25.136l-.535 5.113-75.92 23.287z"/></g><path d="M517.973 300.717s-5.152 10.611-7.39 12.281-10.77 4.509-13.492 5.868-3.853-.84-2.341-3.379c.386-.649 1.118-1.369 1.991-2.083-3.739.408-8.384.741-9.224.2 0 0-3.854-2.916-1.077-5.791 1.534-1.587 3.459-1.304 4.421-1.273.095-.056.195-.102.293-.153-.568-.31-.98-.672-1.077-1.105 0 0-.129-3.195 3.968-4.609 0 0-1.325-2.101 2.895-3.524 0 0-1.062-3.863 3.291-3.799 1.676.024 2.929.63 3.835 1.419l.066-.027c5.768-1.89 8.088-1.766 8.088-1.766l4.791 6.697h0z" class="I"/><use xlink:href="#a" class="D"/><g clip-path="url(#O)" class="C"><use xlink:href="#a"/></g><g class="B"><path d="M256.228 432.812l.669.178 1.979.474 7.645 1.779 28.352 6.498.021.005h.023l41.028-.792.044-.001.041-.016 38.114-15.628.027-.011.024-.017 15.079-10.634 29.444-20.783.024-.016.019-.022 37.689-42.17.031-.034.012-.043 9.544-33.588 2.575-9.164.656-2.39.205-.82s-.097.27-.26.804l-.71 2.375-2.675 9.135-9.71 33.54.042-.076-37.774 42.095.042-.037-29.454 20.768-15.077 10.638.051-.027-38.097 15.669.085-.018-41.027.901.044.005-28.389-6.34-7.666-1.685-1.989-.425-.681-.127"/><path d="M455.873 319.951s-1.049 3.944 3.977 6.647 8.772-1.196 8.772-1.196z"/><path d="M457.239 321.645c.128.055 2.638-5.36 2.638-5.36l8.304 4.335-2.023 4.838z"/><path d="M470.19 322.13l-12.694-6.129 7.317-13.874 12.062 6.699zm.605-19.028s-3.657.081-3.675-2.254 3.791-2.126 8.156-2.988 10.495-1.858 16.846-7.408l2.069 3.459s-13.961 10.841-23.396 9.191"/><path d="M470.177 299.965s-.943-3.228 2.905-4.789 5.689.965 6.755 2.884 1.727 6.056 2.999 8.181 1.109 5.437 3.714 8.412 6.608 3.879 6.608 3.879l-1.52 2.97s-5.603-2.336-8.207-5.724-2.712-4.808-4.361-6.048-4.769.71-4.769.71l-7.359-6.314c.027-.016 3.235-4.161 3.235-4.161"/></g><g class="G"><path d="M543.051 249.829l-75.293 107.857c-21.278 27.87-43.077 53.093-85.098 76.597 0 0-31.802 14.969-53.31 15.637 0 0-40.833 4.02-73.323-12.54l.712-1.845c31.234 16.314 71.62 11.884 71.62 11.884 20.754-1.729 49.724-16.269 49.724-16.269 39.355-19.499 63.394-49.754 85.1-77.293 12.129-15.388 74.734-112.697 74.734-112.697"/><path d="M257.646 433.238c-.139-.038-.463.708-.724 1.666s-.36 1.766-.222 1.804.463-.708.724-1.667.361-1.765.222-1.803m37.267 7.184c-.144.003-.227 1.883-.187 4.199s.191 4.192.334 4.189.228-1.882.187-4.199-.19-4.192-.334-4.189m40.747-.577c-.137.044.26 1.667.888 3.625s1.246 3.509 1.383 3.466-.26-1.667-.888-3.625-1.246-3.51-1.383-3.466m38.386-15.258c-.113.074 1.01 1.898 2.856 3.768 1.839 1.878 3.643 3.031 3.719 2.92.091-.123-1.544-1.442-3.347-3.286l-3.228-3.402m51.46-24.965c.091-.111-1.525-1.589-3.611-3.3s-3.85-3.008-3.941-2.897 1.525 1.588 3.611 3.3 3.85 3.008 3.941 2.897m37.79-42.503c.116-.119-1.484-1.694-3.618-3.416-2.13-1.733-3.948-3.019-4.037-2.907s1.582 1.581 3.708 3.31l3.947 3.013"/></g><g class="B"><path d="M253.349 433.639l-.911-.44-2.694-1.244-4.328-2.129-5.789-3.129c-4.279-2.487-9.424-5.707-15.021-9.968-5.594-4.256-11.639-9.552-17.661-16.037-3.041-3.214-5.987-6.801-8.934-10.623-2.888-3.871-5.733-8.017-8.388-12.491-2.659-4.455-5.193-9.256-6.679-14.581-.725-2.658-1.178-5.443-1.16-8.272.045-2.824.559-5.688 1.625-8.384 1.072-2.68 2.678-5.232 4.92-7.167 1.117-.963 2.353-1.809 3.725-2.409.656-.362 1.395-.535 2.091-.814.731-.17 1.453-.402 2.204-.495 2.99-.471 6.105-.23 9.115.518 3.018.732 5.97 1.858 8.826 3.24 2.871 1.356 5.627 3.007 8.428 4.634l8.377 5.078c5.609 3.443 11.297 6.961 17.25 10.186s12.044 6.07 18.338 8.097c6.288 2.036 12.794 3.09 19.205 3.078 3.208-.041 6.381-.501 9.42-1.332 3.033-.839 5.959-2.054 8.518-3.811 2.554-1.74 4.789-3.966 6.287-6.62 1.504-2.646 2.286-5.643 2.342-8.605.069-2.967-.541-5.888-1.613-8.559-1.066-2.677-2.559-5.131-4.342-7.285-3.557-4.363-8.406-7.223-13.291-9.031-4.922-1.814-9.957-2.627-14.782-3.013-4.837-.377-9.493-.284-13.921-.164-8.848.299-16.886.557-23.849-.488-6.961-.984-12.689-3.301-16.849-5.953-4.193-2.644-6.762-5.611-8.257-7.723-.713-1.089-1.241-1.93-1.531-2.533l-.489-.885a31.55 31.55 0 0 0 .442.91c.275.612.79 1.465 1.492 2.568 1.472 2.139 4.033 5.148 8.234 7.833 4.168 2.695 9.92 5.054 16.916 6.072 6.992 1.076 15.058.842 23.901.568 4.426-.109 9.068-.19 13.879.196 4.8.394 9.798 1.213 14.663 3.017 4.836 1.801 9.6 4.625 13.089 8.918 1.751 2.12 3.216 4.536 4.258 7.165 1.049 2.623 1.641 5.484 1.57 8.377-.058 2.89-.821 5.797-2.286 8.372-1.461 2.581-3.639 4.748-6.141 6.451-2.506 1.718-5.385 2.912-8.374 3.737a37.12 37.12 0 0 1-9.295 1.308c-6.341.007-12.796-1.037-19.038-3.062-6.251-2.014-12.315-4.849-18.249-8.061s-11.616-6.727-17.226-10.17l-8.386-5.08c-2.804-1.626-5.572-3.283-8.47-4.65-2.879-1.391-5.864-2.529-8.929-3.271-3.055-.757-6.239-1.005-9.313-.518-.771.098-1.516.335-2.267.512-.717.286-1.478.468-2.154.841-1.412.619-2.691 1.495-3.841 2.488-2.308 1.999-3.951 4.619-5.043 7.359-1.087 2.756-1.607 5.676-1.648 8.555-.014 2.886.449 5.707 1.188 8.399 1.513 5.389 4.074 10.215 6.749 14.68 2.671 4.483 5.534 8.637 8.438 12.512 2.965 3.828 5.928 7.417 8.986 10.632 6.055 6.487 12.131 11.775 17.754 16.018s10.796 7.448 15.097 9.912c2.176 1.188 4.091 2.277 5.819 3.091 1.711.845 3.149 1.582 4.354 2.086l2.717 1.198.932.391m326.16-24.976s.421-8.706 15.125-13.281l3.426 7.935z"/></g><path d="M619.332 413.199l-1.168.074c-11.75.742-22.101-7.662-23.785-19.315-1.566-10.838-3.158-22.832-3.455-28.681-.614-12.11 11.37-14.756 11.37-14.756l-1.942-14.474 29.426-.945 5.928 52.563c1.877 12.495-3.831 24.003-16.374 25.534" class="I"/><path d="M602.278 350.524s7.615-.933 16.065 3.659c0 0-4.466-8.666-16.472-6.813z" fill="#ff9c6a"/><g class="B"><path d="M597 382.229c-.09-.91.607-1.737 1.556-1.849s1.79.535 1.879 1.446-.606 1.738-1.554 1.85-1.791-.537-1.881-1.447m-.393 5.644c.2-.239 1.57.648 3.429.525 1.859-.095 3.164-1.138 3.379-.924.106.095-.086.516-.653.986-.558.468-1.529.949-2.688 1.018s-2.16-.298-2.748-.699c-.599-.403-.819-.798-.719-.906m17.036-7.209c-.09-.911.607-1.737 1.556-1.848s1.79.534 1.88 1.445-.607 1.738-1.555 1.85-1.791-.537-1.881-1.447m1.221 5.708c.2-.239 1.572.647 3.43.524 1.858-.095 3.163-1.138 3.379-.923.106.095-.085.515-.654.985-.558.468-1.529.95-2.687 1.018s-2.16-.298-2.748-.699c-.598-.402-.819-.798-.72-.905m-7.62-13.365c.016.105-1.128.378-2.986.736-.471.079-.915.202-.974.531-.09.35.14.849.405 1.387l1.633 3.527 3.751 9.259c-.203.089-2.212-3.91-4.487-8.935l-1.575-3.552c-.214-.529-.562-1.121-.364-1.849.105-.362.438-.642.737-.743.298-.112.565-.134.799-.163 1.879-.221 3.047-.303 3.061-.198m6.458 20.622c.216-.487 1.841-.077 3.808-.137 1.967-.016 3.597-.49 3.807-.012.092.229-.23.674-.913 1.097-.677.421-1.725.78-2.905.804s-2.223-.296-2.896-.692c-.679-.395-.996-.828-.901-1.06m-16.701 1.918c.365-.447 1.927-.105 3.774-.201 1.85-.042 3.391-.5 3.778-.08.172.204-.048.643-.705 1.086-.648.441-1.753.837-3.023.885s-2.394-.267-3.063-.659c-.679-.393-.921-.814-.761-1.031m-1.107 3.887s3.67 7.376 7.436 8.914c4.559 1.862 6.157-3.114 10.447-2.202s8.643 2.7 12.745-.831c4.491-3.865 2.123-6.228 2.075-11.616-.193-21.842 3.393-28.249 5.172-18.067.195 1.115 3.368 1.812 4.13 6.529.988 6.116 1.696 13.574.599 18.028-.926 3.754-2.864 6.43-6.451 9.472-5.661 4.801-13.816 5.412-19.394 5.204s-16.665-5.91-16.759-15.431"/></g><path d="M633.018 376.009c.194 1.863 1.896 3.236 3.746 2.941 2.243-.356 4.674-1.797 4.23-6.451-.786-8.256-8.913-5.763-8.905-5.525.006.162.569 5.583.929 9.035" class="I"/><path d="M634.182 369.91c.039.023.134-.115.367-.249.226-.131.627-.245 1.073-.125.903.237 1.769 1.552 1.951 3.036a4.78 4.78 0 0 1-.207 2.098c-.194.628-.545 1.087-.976 1.207-.428.143-.764-.091-.887-.313-.132-.221-.096-.39-.141-.401-.025-.018-.164.156-.065.49.05.161.165.347.374.487s.513.196.816.134c.632-.105 1.149-.745 1.38-1.423a4.91 4.91 0 0 0 .279-2.349c-.211-1.658-1.211-3.134-2.437-3.365-.596-.096-1.063.125-1.295.343-.236.229-.262.418-.232.43" fill="#ff9c6a"/><path d="M606.505 367.108c.066.306 2.074-.248 3.976 1.074s2.275 3.52 2.56 3.458c.134-.007.258-.585.031-1.495a5.19 5.19 0 0 0-2.023-2.918c-1.165-.805-2.456-.932-3.298-.772-.861.157-1.296.519-1.246.653" class="B"/><g class="D"><path d="M531.047 211.724s73.952-26.26 83.927-21.767 9.055 22.88 14.404 38.285 17.973 48.784 17.759 64.404-4.279 33.164-4.493 34.662-33.525 22.685-41.228 21.615-23.389-25.467-23.389-25.467-14.764-43.862-20.113-52.635-14.985-18.241-20.754-32.308c-6.437-15.695-7.611-24.863-6.113-26.789"/><path d="M648.431 359.772c-1.029.343-6.725 2.387-13.017 1.736s-31.819-8.822-34.42-12.86c-2.116-3.284 36.384-30.421 42.887-27.655s11.439 6.453 11.439 12.528 4.826 22.346-6.889 26.251"/></g><g clip-path="url(#P)" class="C"><path d="M643.498 321.21a18.72 18.72 0 0 0 1.513-7.838c-.019-.774-.115-1.615-.653-2.172-.569-.59-1.506-.694-2.293-.464s-1.459.737-2.104 1.243c-5.095 3.996-9.731 8.54-14.354 13.073-4.013 3.934-7.263 8.673-10.158 13.284 0 0 7.936-8.327 18.651-13.857 3.218-1.644 6.358-2.785 9.398-3.269"/></g><g class="B"><path d="M643.881 320.993c.001-.018-.125-.026-.369-.024-.243.009-.614-.013-1.064.097a11.71 11.71 0 0 0-1.638.394c-.636.17-1.336.429-2.109.717-3.09 1.161-7.167 3.228-11.409 5.928-4.223 2.732-7.761 5.643-10.04 8.032-1.123 1.208-2.01 2.209-2.52 2.981-.535.752-.816 1.175-.786 1.195.091.066 1.238-1.619 3.568-3.917 2.324-2.3 5.865-5.139 10.06-7.853 4.213-2.681 8.236-4.787 11.263-6.023.757-.308 1.442-.589 2.06-.782.61-.228 1.149-.364 1.591-.473.439-.14.79-.148 1.027-.191.238-.036.365-.063.366-.081m-4.311 21.227c.004.03.533.007 1.479-.125s2.31-.376 3.962-.825 3.588-1.105 5.645-2.057l1.564-.768c.515-.28 1.143-.652 1.379-1.373.106-.337.121-.745-.08-1.102s-.592-.561-.942-.62c-.725-.116-1.346.054-1.996.113-5.204.686-9.666 2.504-12.649 4.158-1.499.826-2.652 1.594-3.424 2.157s-1.17.911-1.151.937.466-.257 1.265-.769 1.976-1.224 3.482-2c3-1.555 7.417-3.29 12.547-3.967.636-.064 1.295-.215 1.83-.119.554.07.802.555.631 1.059-.143.484-.631.822-1.128 1.088-.513.272-1.028.53-1.531.771-2.02.964-3.923 1.647-5.544 2.138s-2.965.786-3.895.979-1.449.284-1.444.325m-62.548-86.75c.004.008.081-.019.227-.08l.643-.28 2.446-1.133 8.874-4.425a301.84 301.84 0 0 0 12.874-7.116l7.439-4.487 1.933-1.215c.653-.433 1.288-.933 1.777-1.609.239-.338.439-.733.503-1.178a1.97 1.97 0 0 0-.264-1.301c-.229-.396-.621-.694-1.038-.841-.419-.153-.853-.19-1.273-.178-.843.032-1.645.24-2.4.542l-2.167.923-4.199 1.875-7.816 3.803c-4.93 2.529-9.257 5.019-12.832 7.201-3.57 2.191-6.395 4.066-8.317 5.403-.968.658-1.7 1.199-2.2 1.558l-.563.419c-.125.097-.186.15-.181.157s.077-.031.212-.113l.592-.376 2.253-1.477a237.14 237.14 0 0 1 8.394-5.256c3.593-2.137 7.929-4.589 12.86-7.088 2.461-1.257 5.076-2.516 7.811-3.767 1.365-.631 2.767-1.244 4.191-1.864 1.441-.576 2.846-1.387 4.376-1.419.745-.034 1.516.171 1.85.765.374.593.215 1.334-.215 1.913-.864 1.19-2.314 1.857-3.557 2.69l-7.412 4.506c-4.759 2.815-9.115 5.23-12.803 7.204l-8.791 4.569-2.403 1.22-.62.327c-.139.077-.208.12-.204.128"/></g><path d="M506.028 290.975s-6.607 2.977-10.061 3.721-5.526 3.646-7.34 2.902-1.727-2.084-1.295-2.53-6.994.372-7.598-2.753 2.849-3.349 2.849-3.349-1.9-2.679-.95-4.316 1.123-2.084 1.123-2.084-1.727-1.935.172-3.944l1.9-2.009s-.863-1.414 1.468-2.828 20.637-.521 20.637-.521z" class="I"/><path d="M505.744 292.32c-.456-.982-.776-20.31-.776-20.31s17.033-3.07 27.688-2.542c11.777.584 20.282-.387 20.282-.387s10.721.878 17.104 6.033 39.964 28.588 43.156 35.707 1.894 30.486-2.394 34.948-8.847 3.247-13.406 2.014-25.304-25.536-28.495-27.009-6.611-2.701-8.435-9.083c0 0-4.559-1.227-6.839-4.91s-2.736-5.891-2.736-5.891-5.471 2.209-7.978.982-4.788-3.437-4.788-3.437z" class="D"/><g class="B"><path d="M560.838 299.985c.069.02.469-1.146 1.059-3.046l1.01-3.346c.167-.638.43-1.263.517-2.046.033-.38-.005-.845-.299-1.215-.27-.375-.79-.551-1.224-.5-.875.11-1.529.614-2.064 1.107l-1.477 1.47c-.897.979-1.624 1.932-2.18 2.765a19.27 19.27 0 0 0-1.202 2.043c-.25.501-.359.791-.33.806.075.041.661-1.045 1.833-2.637.586-.794 1.33-1.706 2.229-2.649l1.469-1.419c.501-.465 1.116-.89 1.768-.967.656-.083 1.064.503.969 1.156-.06.646-.315 1.321-.47 1.955l-.903 3.376-.705 3.147m14.025.875c-.021-.058-.75.128-1.844.65s-2.531 1.415-3.888 2.681-2.344 2.647-2.934 3.703-.827 1.772-.771 1.796c.147.084 1.396-2.656 4.061-5.119 2.633-2.494 5.45-3.559 5.376-3.711m-31.191-18.593c.013.012.136-.273-.097-.712-.221-.428-.865-.889-1.741-.875-.923-.018-1.807.788-2.274 1.763-.489.995-.755 2.131-1.049 3.322-.547 2.398-.705 4.63-.685 6.235s.177 2.591.241 2.585c.079-.004.051-.992.127-2.578s.287-3.77.825-6.126c.286-1.168.546-2.312.971-3.226.416-.909 1.128-1.582 1.862-1.608.737-.055 1.321.288 1.552.617.249.335.214.609.268.603m45.13 6.899l-.577-.469-1.726-1.327-6.65-5.048-10.518-7.927c-2.085-1.535-4.627-2.675-7.382-3.601-2.774-.888-5.778-1.571-8.995-1.91l-.015-.002-.023.003c-6.743.657-14.247.677-22.323.294-4.053-.015-8.237.277-12.521.74a212.63 212.63 0 0 0-13.149 1.843l-.215.037.008.221.768 20.31.008.207.204.038 9.169 1.732 23.215 4.379-.131-.068a24.21 24.21 0 0 0 2.837 2.285 18.04 18.04 0 0 0 1.54.95c.507.298 1.151.525 1.755.591 1.227.133 2.417-.051 3.563-.304s2.256-.603 3.341-1.021l-.334-.179c.34 1.325.885 2.506 1.469 3.668.608 1.147 1.205 2.272 2.022 3.29.816 1.004 1.814 1.821 2.88 2.479a14.37 14.37 0 0 0 3.385 1.539l-.164-.161c.695 2.39 1.802 4.715 3.634 6.35.896.827 1.943 1.438 2.99 1.962.525.26 1.054.499 1.576.736a4.34 4.34 0 0 1 .726.382c.223.163.447.325.659.509 1.71 1.457 3.251 3.057 4.762 4.583l4.358 4.512c5.629 5.848 10.509 11.03 14.986 14.853 1.139.919 2.212 1.855 3.516 2.283 1.264.336 2.457.642 3.589.838s2.199.284 3.176.239c.979-.052 1.853-.253 2.608-.504 1.502-.55 2.482-1.32 3.1-1.851.601-.559.881-.878.881-.878s-.086.064-.24.204-.376.357-.69.617c-.63.509-1.615 1.25-3.099 1.769a9.88 9.88 0 0 1-2.568.461c-.962.034-2.013-.061-3.13-.268s-2.302-.52-3.563-.866c-1.199-.399-2.284-1.337-3.401-2.257-4.426-3.832-9.281-9.039-14.885-14.907l-4.344-4.531c-1.512-1.537-3.04-3.136-4.781-4.629-.216-.188-.452-.361-.69-.535a4.8 4.8 0 0 0-.789-.42l-1.561-.735c-1.026-.516-2.031-1.108-2.884-1.9-1.743-1.563-2.81-3.8-3.487-6.145l-.035-.12-.129-.042c-2.229-.711-4.455-1.967-6.013-3.872-.762-.948-1.37-2.085-1.96-3.207-.57-1.13-1.11-2.329-1.42-3.546l-.071-.28-.264.101c-1.048.401-2.148.745-3.264.992s-2.272.416-3.394.291c-1.098-.107-2.086-.827-3.069-1.46a23.71 23.71 0 0 1-2.768-2.232l-.058-.054-.073-.014-23.212-4.388-9.17-1.731.211.245-.783-20.31-.207.258c4.456-.77 8.84-1.393 13.111-1.856 4.272-.469 8.441-.767 12.465-.762 8.056.365 15.603.324 22.371-.363h-.038c6.318.712 12.061 2.438 16.225 5.373l10.566 7.846 6.717 4.965 1.76 1.283a13.45 13.45 0 0 0 .612.422"/></g><g clip-path="url(#Q)" class="C"><path d="M571.919 276.69c4.808.618 8.441 4.478 12.603 6.964 5.04 3.01 11.202 4.148 15.583 8.055 4.56 4.066 6.323 7.657 7.874 13.566-10.242-11.633-22.079-19.186-35.076-27.631"/></g><g clip-path="url(#R)" class="C"><path d="M563.174 292.209c-1.198 3.488-2.401 6.984-3.993 10.311-.392.819-.818 1.642-1.463 2.281s-1.55 1.077-2.45.956-3.026-.482-2.699-3.87a26.01 26.01 0 0 1 7.492-11.041c.472-.409.982-.813 1.591-.953s1.339.06 1.628.614c.27.519.084 1.148-.106 1.702"/></g><g clip-path="url(#S)" class="C"><path d="M555.849 285.279c-.78 4.676-2.713 9.154-5.58 12.929-.415-4.635.775-9.71 3.259-13.644.425-.672 1.211-1.404 1.896-1.002.543.318.529 1.096.425 1.717"/></g><g class="G"><path d="M595.632 400.972s2.125 2.151 7.097 3.047c9.235 1.665 21.942 1.219 33.976-13.759l1.897-3.735s.792 7.132.431 10.592c-.24 2.311-.004 16.193-16.715 20.479.981-.252-22.305 4.419-26.686-16.624"/><path d="M597.434 407.873c13.505-.01 26.215-3.134 35.111-12.783-6.58 3.613-16.323 5.945-23.824 5.661s-15.195-.918-22.36 1.32c-3.23 1.008-6.708 3.211-6.852 6.592z"/></g><g class="B"><path d="M633.931 396.454c-.021-.029-.497.26-1.338.806l-1.55.965-2.09 1.211c-1.553.891-3.48 1.805-5.641 2.764-2.181.915-4.621 1.821-7.233 2.613-5.237 1.562-10.142 2.342-13.705 2.677-.89.105-1.699.145-2.409.197-.71.059-1.322.088-1.823.104-1.002.043-1.558.084-1.558.12s.555.063 1.561.082c.503.016 1.119.016 1.833-.015.715-.025 1.53-.039 2.427-.121 3.591-.242 8.545-.971 13.823-2.545 2.633-.798 5.087-1.726 7.275-2.672 2.167-.99 4.092-1.946 5.632-2.884.787-.44 1.466-.892 2.064-1.284.604-.383 1.109-.736 1.508-1.044.809-.6 1.245-.945 1.224-.974M213.606 271.982c-.7 3.747-2.129 7.409-2.04 11.22l-5.875-10.176c3.091-3.183 5.114-7.384 5.677-11.784 2.727 2.663 2.938 6.993 2.238 10.74m-24.29 26.614c-2.228-1.05-4.346-2.333-6.309-3.822-.427-.324-.86-.675-1.09-1.159s-.192-1.137.228-1.47c.334-.265.803-.262 1.228-.223a11.57 11.57 0 0 1 3.59.929m-4.395-6.739c-6.647-1.875-11.29-8.067-12.224-14.54s-.333-15.988 3.748-20.081c1.247 8.02 2.906 10.034 5.662 13.436"/></g><path d="M217.775 315.089s-.196 2.005-4.005 1.203-23.656-9.824-31.876-30.273-2.258-33.391 8.454-41.572c13.137-10.034 33.4-6.659 33.4-6.659l-1.914 5.293s-21.257 5.98-17.673 23.189c0 0 .279 4.672 5.692 13.749s10.132 16.024 12.137 22.239c1.691 5.243 1.83 16.357-4.047 6.234-.27-.464.459 7.068-.168 6.597" class="D"/><g clip-path="url(#T)" class="C"><path d="M210.656 291.902c-3.596-6.978-9.982-11.489-11.628-19.165s-.614-16.344 4.58-22.23c3.679-4.17 9.026-6.52 14.423-7.858 1.337-.331 2.77-.596 4.112-.421l-.309.852s-21.257 5.98-17.673 23.19c0 0 .279 4.671 5.692 13.748s10.132 16.025 12.137 22.24c1.691 5.242 1.83 16.357-4.047 6.234-.091-.158-.068.607-.021 1.666l-4.321-7.265c-.868-.657-.064-5.401-2.945-10.991"/></g><path d="M198.653 275.641c-3.988-4.552-8.301-8.819-12.896-12.756 3.288-.555 6.809.495 9.257 2.759s3.935 6.675 3.639 9.997" class="B"/><path d="M208.188 310.501l-.779-.062c-2.358-.45-3.623-3.698-2.191-5.625s4.907-1.652 6.018.476-.649 5.137-3.048 5.211" class="E"/><g class="B"><path d="M208.307 309.516l-.56-.044c-1.692-.324-2.6-2.655-1.572-4.038s3.522-1.186 4.32.341-.466 3.688-2.188 3.741m2.415-16.056c.02-.022-.173-.238-.585-.557s-1.069-.712-1.954-1.026c-1.726-.638-4.6-.801-7.091.793-2.469 1.629-3.486 4.323-3.603 6.16-.073.936.018 1.696.144 2.201s.243.77.272.761c.105-.019-.284-1.13-.05-2.923.203-1.749 1.228-4.252 3.521-5.762 2.311-1.482 5.013-1.403 6.695-.879 1.733.514 2.591 1.321 2.651 1.232m-1.706-3.254c.02-.022-.173-.238-.585-.557s-1.069-.712-1.954-1.026c-1.726-.638-4.6-.801-7.091.793-2.469 1.629-3.486 4.323-3.603 6.16-.073.936.018 1.696.144 2.202s.243.769.272.76c.105-.018-.284-1.13-.05-2.922.203-1.75 1.228-4.253 3.521-5.763 2.311-1.482 5.014-1.403 6.695-.879 1.733.514 2.591 1.321 2.651 1.232m-5.351-5.15c.02-.023-.122-.195-.434-.446s-.815-.559-1.495-.806c-1.326-.502-3.546-.637-5.472.596a6.34 6.34 0 0 0-2.767 4.76c-.05.722.026 1.306.13 1.693s.202.587.232.578c.096-.02-.185-.872.004-2.232.166-1.328.951-3.22 2.685-4.362 1.747-1.121 3.794-1.07 5.076-.682 1.319.379 1.984.981 2.041.901m9.492 17.18s-.749 7.393-.256 10.388 3.029 3.753 3.886 3.607c1.168-.2 1.504-2.252 1.504-2.252s.032-3.25-.348-5.487zm-3.607-64.766c5.888 1.437 10.581 6.092 13.449 11.431s4.16 11.361 5.351 17.304c2.638-1.774 4.216-4.81 4.892-7.917s1.11-7.363.98-10.54c5.912 1.812 11.607 3.531 17.77 3.033-.658-2.286-2.206-4.221-3.963-5.824-4.178-3.813-9.627-6.026-15.185-7.072s-11.262-.993-16.913-.741"/></g><g clip-path="url(#U)" class="C E"><path d="M183.475 258.027c-2.345 6.132-2.24 12.978-.905 19.405 3.631 17.476 16.666 32.682 33.342 39.017-.542.061-1.238.032-2.142-.158-3.809-.802-23.656-9.823-31.876-30.272s-2.258-33.391 8.454-41.572c2.524-1.928 5.311-3.36 8.167-4.416-6.212 5.042-12.211 10.599-15.04 17.996"/></g><g clip-path="url(#V)" class="C E"><path d="M202.238 277.029c-.391 1.538-1.042 3.343-2.591 3.691-1.241.278-2.434-.55-3.437-1.332l-4.304-3.355c-.782-.609-1.663-1.251-2.652-1.181-1.279.09-2.157 1.323-2.652 2.505a12.43 12.43 0 0 0-.501 8.079c-1.531-3.723-1.825-7.74-1.501-9.759s1.77-4.191 3.812-4.097c1.55.071 2.701 1.389 3.776 2.508a23.84 23.84 0 0 0 5.294 4.14c.442.254.971.499 1.442.302.57-.238.708-.961 1.003-1.504.726-1.338 2.627-1.633 4.031-1.044s2.423 1.813 3.385 2.993a8.74 8.74 0 0 0-5.105-1.946"/></g><g clip-path="url(#W)" class="C E"><path d="M186.156 268.645c-.045.151-.095.261-.209.369s-.144-.14-.285-.209a5.3 5.3 0 0 1-.983-2.082c-.048-.216-.069-.48.101-.623.229-.193.578.005.772.233.548.643.846 1.502.604 2.312"/></g><g clip-path="url(#X)" class="C E"><path d="M203.113 257.323c-.069-.699-.728-1.234-1.421-1.351s-1.4.107-2.032.414c-.835.406-1.859.959-2.604.403-.581-.434-.587-1.277-.722-1.99-.322-1.702-1.773-3.131-3.48-3.427s-3.554.561-4.43 2.055c.521-2.245 3.044-4.407 5.063-4.559 1.411-.106 2.717.899 3.398 2.14s.862 2.684 1.032 4.089c1.121-.33 2.311-.663 3.442-.366s2.115 1.48 1.754 2.592"/></g><path d="M185.262 239.864c-.975-8.655-.171-9.665 1.687-11.983 1.157-1.442 2.3-1.326 2.932-1.427.84-.133 1.612.623 1.811 1.449s-.022 1.69-.243 2.512c2.115-1.117 4.348-2.264 6.738-2.215s4.929 1.759 5.002 4.15a12.12 12.12 0 0 0-8.268-.411c-2.69.84-5.061 2.661-6.567 5.042l-.738-4.281c-1.248 2.201-2.054 4.652-2.354 7.164" class="F"/></g></g></svg>