<svg version="1.2" xmlns="http://www.w3.org/2000/svg" viewBox="0 0 156 321" width="156" height="321">
	<title>plant-color-2</title>
	<style>
		.s0 { fill: #ebebeb } 
		.s1 { fill: #263238 } 
		.s2 { fill: #ff725e } 
		.s3 { fill: #455a64 } 
	</style>
	<path id="&lt;Path&gt; copy" class="s0" d="m114.1 315c-21.1 0-38.2-2.7-38.2-6 0-3.4 17.1-6.1 38.2-6.1 21.2 0 38.3 2.7 38.3 6.1 0 3.3-17.1 6-38.3 6z"/>
	<g id="Plant 1">
		<g id="&lt;Group&gt;">
			<g id="&lt;Group&gt;">
			</g>
			<g id="&lt;Group&gt;">
			</g>
			<g id="&lt;Group&gt;">
				<g id="&lt;Group&gt;">
					<g id="&lt;Group&gt;">
						<path id="&lt;Path&gt;" class="s1" d="m10.5 54.3q0.1 0 0.4 0.6 0.3 0.7 0.8 1.8 1.1 2.5 3.2 7c2.7 6.1 6.5 15 11.1 26 9.3 22 21.5 52.6 34.5 86.7 12.9 34 24.2 65 32.1 87.5 3.9 11.3 7 20.4 9.1 26.8q1.5 4.7 2.4 7.3 0.3 1.2 0.5 1.9 0.2 0.7 0.2 0.7 0 0-0.3-0.7-0.2-0.7-0.6-1.8-1-2.6-2.6-7.3c-2.2-6.3-5.5-15.4-9.4-26.6-8-22.5-19.4-53.4-32.4-87.5-13-34-25.1-64.6-34.1-86.7-4.6-11.1-8.3-20-10.9-26.1q-1.9-4.6-3-7.1-0.5-1.1-0.7-1.8-0.3-0.7-0.3-0.7z"/>
					</g>
					<path id="&lt;Path&gt;" class="s2" d="m38.3 118.9l-2.2 0.9c-4.3 1.8-9.2-0.3-10.9-4.5l-16.8-41c-1.8-4.2 0.3-9.1 4.5-10.9l2.3-0.9c4.3-1.7 9.1 0.3 10.9 4.5l16.8 41c1.7 4.3-0.3 9.2-4.6 10.9z"/>
				</g>
				<g id="&lt;Group&gt;">
					<g id="&lt;Group&gt;">
						<path id="&lt;Path&gt;" class="s1" d="m95.3 7.1q0 0 0.1 0.8 0.1 0.8 0.3 2.2 0.3 3 1 8.5c0.8 7.4 1.7 18.1 2.5 31.4 1.8 26.5 3 63.2 3.8 103.7 0.8 40.6 1.2 77.3 1.4 103.9 0.2 13.2 0.3 23.9 0.4 31.4q0 5.6 0 8.6 0 1.4 0 2.2 0 0.8 0 0.8 0 0-0.1-0.8 0-0.8-0.1-2.2-0.1-3-0.2-8.6c-0.2-7.4-0.4-18.2-0.7-31.4-0.4-26.6-1-63.3-1.7-103.9-0.8-40.5-2-77.2-3.5-103.7-0.7-13.3-1.6-24-2.2-31.4q-0.5-5.5-0.8-8.5-0.1-1.4-0.2-2.2-0.1-0.8 0-0.8z"/>
					</g>
					<path id="&lt;Path&gt;" class="s2" d="m103 77l-2.5 0.2c-4.5 0.5-8.6-2.9-9-7.5l-4.1-44.1c-0.5-4.6 2.9-8.6 7.5-9l2.4-0.3c4.6-0.4 8.7 3 9.1 7.5l4.1 44.2c0.4 4.5-2.9 8.6-7.5 9z"/>
				</g>
				<path id="&lt;Path&gt;" class="s3" d="m112.4 290.3c7.2-30.4 9.1-62.1 5.5-93.2-15.4 26.5-22.8 57.7-20.8 88.3-12.5-18.8-29.1-37.4-51.4-41 20 17.5 36 40.5 49.6 63.5h29.1q8.8-22.4 17.6-44.7c-12.3 5.7-22.9 15.3-29.6 27.1z"/>
			</g>
		</g>
	</g>
</svg>