<svg version="1.2" xmlns="http://www.w3.org/2000/svg" viewBox="0 0 221 264" width="221" height="264">
	<title>plant</title>
	<style>
		.s0 { fill: #e0e0e0 } 
		.s1 { fill: #ebebeb } 
	</style>
	<g id="&lt;Group&gt;">
		<g id="&lt;Group&gt;">
			<g id="&lt;Group&gt;">
				<path id="&lt;Path&gt;" class="s0" d="m103.8 238.7c0 0-1.8-13.1-2.4-34.6q-0.1-4-0.1-8.4c-0.1-2.9 0-5.9 0.1-9.1 0-6.3 0.4-13 0.8-20.1 1-14.1 2.8-29.6 5.6-45.7 3-16.1 6.7-31.2 10.7-44.8 2.1-6.7 4-13.2 6.2-19.1 1.1-3 2-5.9 3.1-8.6q1.6-4.1 3-7.8c8-19.9 14.3-31.5 14.3-31.5q0.1 0-0.2 0.5-0.2 0.7-0.7 1.7-1 2.2-2.8 6.2-1 2.1-2.1 4.6-1.1 2.5-2.3 5.4c-1.7 3.9-3.6 8.3-5.5 13.4q-1.4 3.7-3 7.8c-1 2.7-1.9 5.6-3 8.6-2.1 5.9-4 12.3-6.1 19.1-3.9 13.6-7.6 28.7-10.5 44.7-2.9 16.1-4.7 31.5-5.7 45.6-0.4 7.1-0.9 13.8-1 20 0 3.2-0.2 6.2-0.1 9.1q0 4.4 0.1 8.4c-0.1 5.4 0.3 10.2 0.4 14.4q0.2 3.2 0.3 6 0.2 2.7 0.4 4.9 0.3 4.4 0.4 6.9 0.1 1.1 0.1 1.8 0.1 0.6 0 0.6z"/>
			</g>
		</g>
		<g id="&lt;Group&gt;">
			<path id="&lt;Path&gt;" class="s0" d="m146.8 25.3c-4.5 14.9-10.1 29.4-17.2 43-1.9 3.7-4.8 7.8-8.6 7.3-2.6-0.4-4.6-3.2-5.1-6-0.6-2.9 0-5.9 0.6-8.8 2.8-11.4 7.7-22 12.6-32.6 1.7-3.7 3.5-7.6 6.6-9.9 3.1-2.3 7.9-2.5 10.2 0.8 0 0 2 2.4 0.9 6.2z"/>
		</g>
		<g id="&lt;Group&gt;">
			<path id="&lt;Path&gt;" class="s1" d="m128 255.3c7.8-16.3 18.4-47.3 15.5-62.9-18.4 6.9-36.3 31.7-51 48.9q25.9-59 51.8-118c-35.1 21.9-55.4 60.6-74.2 97.5 9.9-29 15.9-59.4 17.7-90-19.4 15.7-33.2 38.3-38.1 62.8q8.4-78.1 16.8-156.3c-23.7 22.1-35.8 54.4-39.5 86.6-3.7 32.2 0.3 64.7 4.3 96.9q-13.5-25.2-26.9-50.3c-2.1 33 4.1 63.2 21.1 91.6h119.2c30.1-32.5 51.6-61.7 71.1-101.4-40.8 16.1-65.8 56.7-87.8 94.6z"/>
		</g>
		<g id="&lt;Group&gt;">
			<g id="&lt;Group&gt;">
				<path id="&lt;Path&gt;" class="s0" d="m44.5 248.7q0 0-0.2-0.6-0.1-0.6-0.2-1.6-0.4-2.2-1.1-6.1-0.3-2.1-0.7-4.5-0.3-2.4-0.7-5.3c-0.4-3.8-1.1-8.2-1.4-13q-0.3-3.6-0.7-7.6c-0.2-2.6-0.3-5.4-0.5-8.2-0.3-5.7-0.4-11.8-0.5-18.2 0-12.8 0.6-26.9 2-41.7 1.6-14.7 3.9-28.6 6.5-41.2 1.4-6.2 2.7-12.2 4.2-17.7 0.7-2.8 1.4-5.4 2.1-8q1.2-3.8 2.2-7.3c1.3-4.6 2.8-8.8 4.1-12.4q0.9-2.7 1.7-5.1 0.9-2.3 1.6-4.2 1.4-3.7 2.3-5.8 0.3-0.9 0.6-1.5 0.2-0.5 0.2-0.5 0 0-0.1 0.5-0.2 0.6-0.5 1.6-0.8 2.1-2.1 5.8-0.7 2-1.5 4.3-0.8 2.3-1.7 5.1c-1.2 3.6-2.6 7.8-3.9 12.4q-1 3.5-2.1 7.3c-0.7 2.6-1.3 5.3-2.1 8-1.5 5.5-2.7 11.5-4.1 17.7-2.5 12.5-4.8 26.4-6.3 41.1-1.5 14.7-2.1 28.8-2.1 41.6 0.1 6.4 0.1 12.4 0.4 18.1 0.2 2.9 0.2 5.6 0.4 8.3q0.3 3.9 0.6 7.5c0.3 4.9 0.9 9.2 1.3 13q0.3 2.9 0.6 5.3 0.3 2.5 0.6 4.5 0.6 3.9 0.9 6.2 0.1 1 0.2 1.6 0 0.5 0 0.6z"/>
			</g>
		</g>
		<g id="&lt;Group&gt;">
			<g id="&lt;Group&gt;">
				<path id="&lt;Path&gt;" class="s0" d="m56.7 245.4q0 0-0.1-1.3 0-1.3 0-3.4 0-2.3 0.1-5.6c0.1-2.1 0.1-4.6 0.4-7.3 0.3-5.4 1-11.8 2.1-18.9 1.2-7 2.7-14.8 4.8-22.8 2.2-7.9 4.7-15.4 7.2-22.1 1.4-3.3 2.6-6.5 4-9.4q0.9-2.2 1.9-4.2 1-2 1.9-3.8c1.2-2.4 2.4-4.6 3.4-6.4 1-1.9 2-3.5 2.8-4.8q1.2-1.8 1.9-2.9 0.6-1.1 0.7-1 0 0-0.5 1.1-0.7 1.1-1.7 3c-0.8 1.3-1.7 2.9-2.7 4.8-1 1.9-2.1 4.1-3.3 6.5q-0.8 1.9-1.8 3.8-0.9 2.1-1.9 4.2c-1.3 2.9-2.5 6.1-3.8 9.4-2.5 6.7-4.9 14.2-7.1 22.1-2.1 8-3.7 15.7-4.8 22.7-1.2 7-2 13.4-2.4 18.8-0.3 2.7-0.4 5.1-0.5 7.3q-0.2 3.2-0.3 5.5-0.1 2.1-0.2 3.4 0 1.3-0.1 1.3z"/>
			</g>
		</g>
		<g id="&lt;Group&gt;">
			<g id="&lt;Group&gt;">
				<path id="&lt;Path&gt;" class="s0" d="m143.6 124.5q0 0-0.9 1.2-0.9 1.2-2.5 3.2c-2.2 2.8-5.4 6.9-9.2 12-3.8 5.1-8.2 11.3-12.9 18.3-4.6 7.1-9.5 15-14.2 23.4-4.8 8.5-9 16.8-12.6 24.4-3.6 7.7-6.6 14.6-9 20.6-2.4 5.9-4.2 10.7-5.4 14.1q-0.9 2.3-1.5 3.8-0.5 1.3-0.5 1.3-0.1 0 0.3-1.4 0.5-1.4 1.3-3.9c1.1-3.4 2.8-8.3 5.1-14.2 2.3-6 5.3-13 8.8-20.7 3.6-7.6 7.8-15.9 12.6-24.5 4.8-8.5 9.7-16.4 14.3-23.4 4.8-7 9.2-13.2 13.1-18.3 3.9-5 7.2-9.1 9.5-11.8q1.7-1.9 2.7-3.1 0.9-1 1-1z"/>
			</g>
		</g>
		<g id="&lt;Group&gt;">
			<g id="&lt;Group&gt;">
				<path id="&lt;Path&gt;" class="s0" d="m139.3 196.7c0.2 0.2-7.1 13.4-16.5 29.6-9.4 16.3-17.1 29.3-17.4 29.1-0.2-0.1 7.1-13.4 16.5-29.6 9.3-16.2 17.1-29.2 17.4-29.1z"/>
			</g>
		</g>
		<g id="&lt;Group&gt;">
			<g id="&lt;Group&gt;">
				<path id="&lt;Path&gt;" class="s0" d="m211.8 168.5c0.2 0.2-15.8 20.7-35.9 45.8-20 25.2-36.4 45.5-36.6 45.3-0.3-0.2 15.8-20.7 35.8-45.9 20.1-25.2 36.5-45.4 36.7-45.2z"/>
			</g>
		</g>
		<g id="&lt;Group&gt;">
			<g id="&lt;Group&gt;">
				<path id="&lt;Path&gt;" class="s0" d="m39.2 257.9c-0.1 0.1-0.8-1-2.1-2.9-1.3-1.8-3-4.6-5-8.2-4.1-7-9.3-17-13.9-28.5-4.6-11.5-7.7-22.3-9.6-30.2-0.9-4-1.6-7.2-1.9-9.4-0.4-2.3-0.6-3.5-0.5-3.5 0 0 0.3 1.2 0.9 3.4 0.5 2.2 1.2 5.4 2.3 9.3 2 7.8 5.2 18.5 9.8 30 4.6 11.5 9.6 21.5 13.5 28.6 2 3.5 3.6 6.4 4.8 8.3 1.1 2 1.7 3.1 1.7 3.1z"/>
			</g>
		</g>
	</g>
</svg>