<svg version="1.2" xmlns="http://www.w3.org/2000/svg" viewBox="0 0 218 297" width="218" height="297">
	<title>plant-color</title>
	<style>
		.s0 { fill: #263238 } 
		.s1 { fill: #ff725e } 
		.s2 { fill: #455a64 } 
	</style>
	<g id="Plant 2">
		<g id="&lt;Group&gt;">
			<g id="&lt;Group&gt;">
				<g id="&lt;Group&gt;">
					<path id="&lt;Path&gt;" class="s0" d="m141.4 271.7q0 0 0-0.6 0-0.7 0.1-1.8 0.2-2.5 0.5-6.9 0.1-2.2 0.4-4.9 0.1-2.8 0.2-5.9c0.2-4.3 0.5-9.1 0.5-14.5q0-4 0.1-8.3c0-3-0.1-6-0.2-9.1-0.1-6.3-0.5-13-0.9-20.1-1.1-14.1-2.9-29.5-5.7-45.6-3-16-6.7-31.1-10.6-44.7-2-6.7-3.9-13.2-6.1-19.1-1-3-1.9-5.9-3-8.6q-1.5-4.1-3-7.8c-1.8-5-3.8-9.4-5.4-13.4q-1.3-2.9-2.3-5.4-1.2-2.5-2.1-4.5-1.9-4-2.9-6.3-0.4-1-0.7-1.6-0.2-0.6-0.2-0.6c0 0 6.3 11.6 14.3 31.5q1.5 3.8 3.1 7.8c1 2.8 2 5.7 3 8.6 2.2 5.9 4.1 12.4 6.3 19.1 3.9 13.6 7.7 28.8 10.6 44.9 2.8 16.1 4.6 31.5 5.6 45.7 0.4 7 0.8 13.7 0.9 20 0 3.2 0.1 6.2 0.1 9.2q-0.1 4.3-0.2 8.4c-0.6 21.4-2.4 34.5-2.4 34.5z"/>
				</g>
			</g>
			<g id="&lt;Group&gt;">
				<g id="&lt;Group&gt;">
					<path id="&lt;Path&gt;" class="s0" d="m35.2 4.5q0 0 0.5 0.5 0.5 0.6 1.4 1.6c1.2 1.4 3 3.5 5.2 6.3 4.4 5.6 10.6 13.8 17.4 24.6 6.8 10.7 14.1 24 20.9 39.4 6.9 15.3 13.2 32.8 18.5 51.4 10.6 37.4 15.3 72.4 18 97.6 0.7 6.3 1.3 12 2 17 0.6 5 1.4 9.3 2.3 12.7 0.9 3.5 1.7 6.1 2.4 7.8q0.4 1.3 0.7 2 0.2 0.7 0.2 0.7c0 0-1.8-3.5-3.7-10.4-0.9-3.4-1.8-7.7-2.5-12.7-0.8-5-1.4-10.7-2.1-17-2.9-25.2-7.7-60.1-18.3-97.4-5.3-18.6-11.5-36-18.3-51.3-6.8-15.4-14.1-28.7-20.7-39.4-6.7-10.8-12.8-19.1-17.1-24.7-2.2-2.9-3.9-5-5.1-6.4q-0.8-1.1-1.3-1.7-0.5-0.6-0.4-0.6z"/>
				</g>
			</g>
			<g id="&lt;Group&gt;">
				<path id="&lt;Path&gt;" class="s1" d="m100.4 55.7c4.5 14.9 10.1 29.4 17.2 43 1.9 3.7 4.8 7.8 8.6 7.2 2.6-0.3 4.6-3.1 5.1-6 0.6-2.8 0.1-5.8-0.6-8.7-2.8-11.4-7.7-22.1-12.6-32.6-1.7-3.7-3.5-7.6-6.6-9.9-3.1-2.3-7.9-2.5-10.2 0.8 0 0-2 2.3-0.9 6.2z"/>
			</g>
			<g id="&lt;Group&gt;">
				<path id="&lt;Path&gt;" class="s1" d="m38.2 19c7 13.9 15.2 27.1 24.6 39.3 2.5 3.3 6.1 6.8 9.7 5.6 2.5-0.9 4-3.9 4-6.9 0.1-2.9-1-5.7-2.2-8.4-4.8-10.8-11.5-20.4-18.2-29.9-2.3-3.3-4.8-6.8-8.3-8.5-3.5-1.8-8.2-1.1-9.8 2.6 0 0-1.6 2.6 0.2 6.2z"/>
			</g>
			<g id="&lt;Group&gt;">
				<path id="&lt;Path&gt;" class="s2" d="m90.4 288.1c-7.8-16.4-18.4-47.3-15.5-62.9 18.4 6.9 36.3 31.7 51 48.9q-25.9-59-51.8-118c35.1 21.9 55.4 60.6 74.2 97.5-9.9-29.1-15.9-59.4-17.7-90 19.5 15.7 33.2 38.3 38.1 62.8q-8.4-78.1-16.8-156.3c23.7 22.1 35.8 54.4 39.5 86.6 3.7 32.2-0.3 64.7-4.3 96.8q13.5-25.1 27-50.2c2 33-4.2 63.2-21.1 91.6h-119.3c-30-32.5-51.6-61.7-71.1-101.4 40.8 16.1 65.8 56.6 87.8 94.6z"/>
			</g>
			<g id="&lt;Group&gt;">
				<g id="&lt;Group&gt;">
					<path id="&lt;Path&gt;" class="s0" d="m173.9 281.4q0 0 0.1-0.5 0-0.6 0.1-1.6 0.3-2.3 0.9-6.2 0.3-2 0.6-4.5 0.3-2.4 0.6-5.3c0.4-3.8 1-8.2 1.3-13q0.3-3.6 0.6-7.6c0.2-2.6 0.2-5.3 0.4-8.2 0.3-5.7 0.3-11.7 0.4-18.1 0-12.8-0.6-26.9-2.1-41.6-1.5-14.7-3.8-28.6-6.3-41.1-1.4-6.3-2.6-12.2-4.1-17.7-0.7-2.8-1.4-5.4-2.1-8q-1.1-3.8-2.1-7.3c-1.3-4.6-2.7-8.8-3.9-12.4q-0.9-2.8-1.7-5.1-0.8-2.3-1.5-4.3-1.3-3.7-2.1-5.9-0.3-0.9-0.5-1.5-0.1-0.5-0.1-0.5 0 0 0.2 0.5 0.3 0.6 0.6 1.5 0.9 2.1 2.3 5.8 0.7 1.9 1.6 4.2 0.8 2.4 1.8 5.1c1.2 3.6 2.7 7.8 4 12.4q1 3.5 2.2 7.3c0.7 2.5 1.4 5.2 2.1 8 1.5 5.5 2.8 11.4 4.2 17.7 2.6 12.6 4.9 26.5 6.5 41.2 1.4 14.7 2 28.8 2 41.7-0.1 6.4-0.2 12.5-0.5 18.2-0.2 2.8-0.3 5.6-0.5 8.2q-0.4 3.9-0.7 7.6c-0.3 4.8-1 9.2-1.4 13q-0.4 2.8-0.7 5.3-0.4 2.4-0.7 4.5-0.7 3.9-1 6.1-0.2 1-0.3 1.6-0.2 0.5-0.2 0.5z"/>
				</g>
			</g>
			<g id="&lt;Group&gt;">
				<g id="&lt;Group&gt;">
					<path id="&lt;Path&gt;" class="s0" d="m161.7 278.1q-0.1 0-0.1-1.2-0.1-1.3-0.2-3.4 0-2.3-0.3-5.5c-0.1-2.2-0.2-4.6-0.5-7.3-0.4-5.4-1.2-11.8-2.3-18.8-1.2-7.1-2.8-14.7-4.9-22.7-2.1-8-4.6-15.4-7.1-22.1-1.3-3.3-2.5-6.5-3.8-9.4q-1-2.1-1.9-4.2-0.9-2-1.8-3.8c-1.2-2.4-2.3-4.6-3.3-6.5-1-1.9-1.9-3.5-2.7-4.8q-1-1.9-1.7-3.1-0.5-1-0.5-1 0.1-0.1 0.7 0.9 0.7 1.2 1.9 3c0.8 1.3 1.8 2.8 2.8 4.7 1 1.9 2.3 4 3.4 6.5q0.9 1.8 1.9 3.8 1 2 1.9 4.2c1.4 2.9 2.6 6 4 9.4 2.5 6.7 5 14.1 7.2 22.1 2.1 8 3.7 15.8 4.8 22.8 1.1 7.1 1.8 13.5 2.1 18.9 0.3 2.7 0.3 5.2 0.4 7.3q0.1 3.3 0.1 5.5 0 2.2 0 3.5-0.1 1.2-0.1 1.2z"/>
				</g>
			</g>
			<g id="&lt;Group&gt;">
				<g id="&lt;Group&gt;">
					<path id="&lt;Path&gt;" class="s0" d="m74.8 157.3q0.1-0.1 1 1 1 1.2 2.7 3.1c2.4 2.7 5.6 6.7 9.5 11.8 3.9 5.1 8.4 11.3 13.1 18.3 4.6 7 9.6 14.9 14.4 23.4 4.7 8.5 8.9 16.8 12.5 24.5 3.5 7.7 6.5 14.7 8.8 20.7 2.3 5.9 4 10.8 5.1 14.2q0.8 2.4 1.3 3.9 0.4 1.4 0.3 1.4 0 0-0.5-1.3-0.6-1.5-1.5-3.9c-1.2-3.3-3-8.1-5.4-14.1-2.4-5.9-5.4-12.9-9-20.5-3.6-7.6-7.8-15.9-12.6-24.4-4.7-8.5-9.6-16.3-14.2-23.4-4.7-7-9.1-13.2-12.9-18.3-3.8-5.2-7-9.3-9.2-12q-1.6-2-2.5-3.3-0.9-1.1-0.9-1.1z"/>
				</g>
			</g>
			<g id="&lt;Group&gt;">
				<g id="&lt;Group&gt;">
					<path id="&lt;Path&gt;" class="s0" d="m79.1 229.5c0.3-0.1 8.1 12.9 17.4 29.1 9.4 16.2 16.8 29.5 16.5 29.6-0.2 0.1-8-12.9-17.4-29.1-9.3-16.2-16.7-29.4-16.5-29.6z"/>
				</g>
			</g>
			<g id="&lt;Group&gt;">
				<g id="&lt;Group&gt;">
					<path id="&lt;Path&gt;" class="s0" d="m6.6 201.3c0.2-0.2 16.6 20 36.7 45.2 20 25.1 36.1 45.7 35.8 45.9-0.2 0.1-16.6-20.1-36.6-45.3-20.1-25.1-36.1-45.7-35.9-45.8z"/>
				</g>
			</g>
			<g id="&lt;Group&gt;">
				<g id="&lt;Group&gt;">
					<path id="&lt;Path&gt;" class="s0" d="m179.3 290.7c-0.1 0 0.5-1.1 1.6-3.1 1.2-1.9 2.8-4.8 4.8-8.3 3.9-7.1 8.9-17.1 13.5-28.6 4.6-11.5 7.8-22.2 9.9-30 1-3.9 1.8-7.1 2.2-9.3 0.6-2.2 0.9-3.5 1-3.5 0 0.1-0.2 1.3-0.6 3.5-0.3 2.3-1 5.5-1.9 9.4-1.9 8-5 18.8-9.6 30.3-4.6 11.5-9.8 21.5-13.9 28.5-2 3.5-3.7 6.3-5 8.2-1.3 1.9-2 2.9-2 2.9z"/>
				</g>
			</g>
		</g>
	</g>
</svg>