<svg version="1.2" xmlns="http://www.w3.org/2000/svg" viewBox="0 0 180 98" width="180" height="98">
	<title>rock</title>
	<style>
		.s0 { fill: #ebebeb } 
		.s1 { fill: #fafafa } 
		.s2 { fill: #f5f5f5 } 
		.s3 { fill: #e0e0e0 } 
		.s4 { fill: #263238 } 
	</style>
	<g id="Rock">
		<g id="&lt;Group&gt;">
			<path id="&lt;Path&gt;" class="s0" d="m98.8 95.4c-43.7 0-79-5.6-79-12.5 0-7 35.3-12.6 79-12.6 43.8 0 79.1 5.6 79.1 12.6 0 6.9-35.3 12.5-79.1 12.5z"/>
			<path id="&lt;Path&gt;" class="s1" d="m19.7 79.7l-16.7-22.2 4.1-25.4 67.4-28.7 53.7 11.9 22.2 19.4-20.9 48.4-48.6 3.1z"/>
			<path id="&lt;Path&gt;" class="s0" d="m3 57.5l70.9 15.1 5.7 13.6-59.9-6.5z"/>
			<path id="&lt;Path&gt;" class="s2" d="m74.1 72.6c0 0 35-18.2 47.9-16.9l1.6 27.8-43.9 2.7z"/>
			<path id="&lt;Path&gt;" class="s3" d="m123.5 83.5l-1.6-27.8 28.5-21-20.9 48.4z"/>
			<path id="&lt;Path&gt;" class="s4" d="m19.7 79.7q0 0 1.2 0l3.2 0.3 12.2 1.2 44.7 4.5 48.5-3.2-0.4 0.3c6.4-14.9 13.5-31.3 20.8-48.5l0.2 0.7-18.2-15.8-4.1-3.5 0.3 0.1-53.6-12h0.3l-67.5 28.6 0.2-0.3q-2.4 14.6-4.1 25.3v-0.2l12.1 16.6 3.2 4.3 0.8 1.2q0.1 0.2 0.2 0.4c0 0 0 0-0.3-0.4l-0.8-1-3.3-4.1-12.5-16.4v-0.1-0.2q1.7-10.7 3.9-25.3v-0.3h0.2l67.4-28.8h0.2 0.2l53.6 11.9h0.2v0.1l4 3.5 18.2 15.8 0.3 0.3-0.1 0.4-21 48.4-0.1 0.3h-0.4l-48.5 3-44.8-5-12.2-1.4-3.1-0.4q-0.6-0.1-1.1-0.3z"/>
		</g>
	</g>
</svg>