<svg version="1.2" xmlns="http://www.w3.org/2000/svg" viewBox="0 0 248 553" width="248" height="553">
	<title>noun-mouse-5356640-svg</title>
	<style>
		.s0 { fill: #000000 } 
	</style>
	<g id="Layer">
		<path id="Layer" class="s0" d="m170.2 490.9l-34.1 29.8v-57.2c0-5.1-4.1-9.2-9.2-9.2-5.1 0-9.2 4.1-9.2 9.2v57.2l-34.1-29.8c-3.9-3.3-9.7-3-13.1 0.9-3.3 3.8-2.9 9.6 0.9 13l49.4 43.2c1.7 1.5 3.9 2.3 6.1 2.3 2.1 0 4.2-0.8 6-2.2h0.1l49.3-43.2c3.9-3.4 4.3-9.2 0.9-13.1-3.4-3.8-9.2-4.2-13-0.9z"/>
		<path id="Layer" class="s0" d="m77.5 66.5c2.1 0 4.3-0.8 6.1-2.3l34.1-29.8v57.2c0 5.1 4.1 9.2 9.2 9.2 5.1 0 9.2-4.1 9.2-9.2v-57.3l34.1 29.8c1.7 1.6 4 2.3 6.1 2.3 2.6 0 5.1-1 7-3.1 3.4-3.9 2.9-9.7-0.9-13.1l-49.4-43.1c0 0-0.1 0-0.1-0.1-3.5-2.9-8.6-2.9-12 0.1l-49.5 43.2c-3.8 3.3-4.2 9.1-0.8 13 1.8 2.1 4.4 3.2 6.9 3.2z"/>
		<path id="Layer" fill-rule="evenodd" class="s0" d="m241 214.7v125.7c0 46.2-37.6 83.8-83.8 83.8h-60.6c-46.3 0-83.9-37.6-83.9-83.8v-125.7c0-46.2 37.6-83.8 83.9-83.8h60.6c46.2 0 83.8 37.6 83.8 83.8zm-18.4 0c0-36.1-29.3-65.3-65.4-65.3h-60.6c-36 0-65.4 29.2-65.4 65.3v125.7c0 36.1 29.3 65.4 65.4 65.4h60.6c36.1 0 65.4-29.3 65.4-65.4z"/>
		<path id="Layer" class="s0" d="m126.9 198.5c-5.1 0-9.2 4.1-9.2 9.3v41.2c0 5.2 4.1 9.3 9.2 9.3 5.1 0 9.2-4.2 9.2-9.3v-41.2c0-5.2-4.1-9.3-9.2-9.3z"/>
		<g id="v">
			<path id="Layer" class="s0" d="m-131.4 647.1q-1.6 0.8-3.3 1.2-1.7 0.4-3.6 0.4-5.6 0-8.9-3.1-3.3-3.1-3.3-8.5 0-5.4 3.3-8.5 3.3-3.1 8.9-3.1 1.9 0 3.6 0.4 1.7 0.4 3.3 1.2v4.7q-1.6-1.1-3.2-1.6-1.5-0.5-3.2-0.5-3.1 0-4.9 2-1.8 1.9-1.8 5.4 0 3.5 1.8 5.5 1.8 2 4.9 2 1.7 0 3.2-0.6 1.6-0.5 3.2-1.6z"/>
		</g>
		<g id="d">
			<path id="Layer" class="s0" d="m-114.3 636.1q-0.7-0.4-1.4-0.5-0.7-0.2-1.5-0.2-2 0-3.1 1.3-1.2 1.4-1.1 3.9v7.7h-5.4v-16.8h5.4v2.7q1-1.6 2.3-2.4 1.4-0.7 3.2-0.7 0.3 0 0.6 0 0.3 0 0.9 0.1z"/>
		</g>
		<g id="b">
			<path id="Layer" fill-rule="evenodd" class="s0" d="m-94.9 639.9v1.5h-12.5q0.2 1.9 1.3 2.8 1.2 1 3.3 1 1.7 0 3.5-0.5 1.8-0.5 3.6-1.6v4.2q-1.9 0.7-3.8 1.1-1.9 0.3-3.8 0.3-4.6 0-7.1-2.3-2.5-2.3-2.5-6.5 0-4.1 2.5-6.5 2.5-2.3 6.8-2.3 4 0 6.3 2.4 2.4 2.4 2.4 6.4zm-5.5-1.8q0-1.6-0.9-2.5-0.9-0.9-2.3-0.9-1.6 0-2.6 0.8-0.9 0.9-1.2 2.6z"/>
		</g>
		<g id="j">
			<path id="Layer" fill-rule="evenodd" class="s0" d="m-75 638.7v9.6h-5.5v-2.5q-1 1.5-2.4 2.2-1.3 0.7-3.3 0.7-2.6 0-4.2-1.5-1.6-1.5-1.6-3.9 0-3 2-4.4 2-1.4 6.4-1.4h3.1v-0.4q0-1.3-1-1.9-1-0.5-3.1-0.5-1.7 0-3.2 0.3-1.5 0.3-2.8 1v-4.1q1.7-0.4 3.5-0.6 1.7-0.2 3.5-0.2 4.5 0 6.5 1.8 2.1 1.8 2.1 5.8zm-8.3 2q-1.6 0-2.5 0.6-0.8 0.6-0.8 1.7 0 1 0.6 1.6 0.7 0.6 2 0.6 1.5 0 2.5-1.1 1-1.1 1-2.7v-0.7z"/>
		</g>
		<g id="c">
			<path id="Layer" class="s0" d="m-64.2 626.7v4.8h5.6v3.8h-5.6v7.2q0 1.1 0.5 1.6 0.5 0.4 1.9 0.4h2.7v3.8h-4.6q-3.2 0-4.5-1.3-1.3-1.3-1.3-4.5v-7.2h-2.7v-3.8h2.7v-4.8z"/>
		</g>
		<g id="b">
			<path id="Layer" fill-rule="evenodd" class="s0" d="m-38.5 639.9v1.5h-12.6q0.2 1.9 1.4 2.8 1.1 1 3.2 1 1.7 0 3.5-0.5 1.8-0.5 3.7-1.6v4.2q-1.9 0.7-3.8 1.1-1.9 0.3-3.9 0.3-4.5 0-7-2.3-2.6-2.3-2.6-6.5 0-4.1 2.5-6.5 2.5-2.3 6.9-2.3 3.9 0 6.3 2.4 2.4 2.4 2.4 6.4zm-5.6-1.8q0-1.6-0.9-2.5-0.8-0.9-2.3-0.9-1.5 0-2.5 0.8-1 0.9-1.2 2.6z"/>
		</g>
		<g id="i">
			<path id="Layer" fill-rule="evenodd" class="s0" d="m-23 633.9v-9h5.4v23.4h-5.4v-2.4q-1.1 1.5-2.5 2.2-1.3 0.6-3.1 0.6-3.1 0-5.1-2.4-2-2.5-2-6.4 0-3.9 2-6.3 2-2.5 5.1-2.5 1.8 0 3.1 0.7 1.4 0.7 2.5 2.1zm-3.6 10.9q1.8 0 2.7-1.2 0.9-1.3 0.9-3.7 0-2.4-0.9-3.7-0.9-1.2-2.7-1.2-1.7 0-2.6 1.2-0.9 1.3-0.9 3.7 0 2.4 0.9 3.7 0.9 1.2 2.6 1.2z"/>
		</g>
		<g id="g">
			<path id="Layer" fill-rule="evenodd" class="s0" d="m3.7 633.9q1.1-1.4 2.4-2.1 1.4-0.7 3.1-0.7 3.1 0 5.1 2.5 2 2.4 2 6.3 0 3.9-2 6.4-2 2.4-5.1 2.4-1.7 0-3.1-0.7-1.3-0.7-2.4-2.1v2.4h-5.4v-23.4h5.4zm3.5 10.9q1.8 0 2.7-1.2 0.9-1.3 0.9-3.7 0-2.4-0.9-3.7-0.9-1.2-2.7-1.2-1.7 0-2.6 1.2-0.9 1.3-0.9 3.7 0 2.4 0.9 3.7 0.9 1.2 2.6 1.2z"/>
		</g>
		<g id="f">
			<path id="Layer" class="s0" d="m18.1 631.5h5.4l4.5 11.4 3.9-11.4h5.3l-7.1 18.4q-1 2.8-2.4 3.9-1.5 1.1-3.8 1.1h-3.1v-3.5h1.7q1.4 0 2-0.4 0.6-0.5 0.9-1.6l0.2-0.5z"/>
		</g>
		<g id="h">
			<path id="Layer" fill-rule="evenodd" class="s0" d="m65.9 636.3q1.8 0.5 2.9 2 1 1.5 1 3.6 0 3.2-2.2 4.8-2.2 1.6-6.7 1.6h-9.6v-22.4h8.7q4.7 0 6.8 1.4 2.1 1.4 2.1 4.5 0 1.6-0.8 2.8-0.8 1.1-2.2 1.7zm-5.4 8.1q1.7 0 2.6-0.8 0.9-0.7 0.9-2.2 0-1.4-0.9-2.2-0.8-0.7-2.6-0.7h-3.4v5.9zm-0.2-9.8q1.4 0 2.1-0.6 0.7-0.6 0.7-1.8 0-1.2-0.7-1.8-0.7-0.6-2.1-0.6h-3.2v4.8z"/>
		</g>
		<g id="a">
			<path id="Layer" fill-rule="evenodd" class="s0" d="m82.5 631.1q4.4 0 6.8 2.3 2.5 2.4 2.5 6.5 0 4.2-2.5 6.5-2.4 2.3-6.8 2.3-4.3 0-6.8-2.3-2.4-2.3-2.4-6.5 0-4.1 2.4-6.5 2.5-2.3 6.8-2.3zm0 3.8q-1.8 0-2.7 1.3-0.9 1.3-0.9 3.7 0 2.4 0.9 3.7 0.9 1.3 2.7 1.3 1.8 0 2.7-1.3 1-1.3 1-3.7 0-2.4-1-3.7-0.9-1.3-2.7-1.3z"/>
		</g>
		<g id="e">
			<path id="Layer" class="s0" d="m111.3 634.3q1-1.6 2.4-2.4 1.4-0.8 3.1-0.8 2.9 0 4.4 1.8 1.5 1.8 1.5 5.2v10.2h-5.4v-8.8q0-0.2 0-0.4 0-0.2 0-0.6 0-1.8-0.5-2.6-0.5-0.8-1.7-0.8-1.5 0-2.4 1.3-0.8 1.3-0.8 3.6v8.3h-5.4v-8.8q0-2.8-0.5-3.6-0.5-0.8-1.7-0.8-1.6 0-2.4 1.3-0.8 1.3-0.8 3.6v8.3h-5.5v-16.8h5.5v2.4q0.9-1.4 2.2-2.1 1.3-0.7 2.8-0.7 1.8 0 3.1 0.8 1.4 0.9 2.1 2.4z"/>
		</g>
		<g id="u">
			<path id="Layer" class="s0" d="m143.6 626.6v4.7q-1.9-0.8-3.6-1.2-1.8-0.4-3.4-0.4-2 0-3 0.5-1 0.6-1 1.8 0 0.9 0.7 1.4 0.6 0.5 2.4 0.9l2.5 0.5q3.7 0.7 5.3 2.3 1.6 1.5 1.6 4.3 0 3.7-2.2 5.5-2.3 1.8-6.8 1.8-2.1 0-4.3-0.4-2.1-0.4-4.2-1.2v-4.8q2.1 1.1 4.1 1.7 2 0.6 3.9 0.6 1.9 0 2.9-0.7 1-0.6 1-1.8 0-1-0.7-1.6-0.7-0.6-2.7-1l-2.3-0.5q-3.3-0.7-4.9-2.3-1.5-1.6-1.5-4.3 0-3.3 2.1-5.1 2.2-1.8 6.2-1.8 1.9 0 3.8 0.3 2 0.2 4.1 0.8z"/>
		</g>
		<g id="f">
			<path id="Layer" class="s0" d="m147.7 631.5h5.4l4.5 11.4 3.8-11.4h5.4l-7.1 18.4q-1 2.8-2.5 3.9-1.4 1.1-3.7 1.1h-3.1v-3.5h1.7q1.3 0 2-0.4 0.6-0.5 0.9-1.6l0.2-0.5z"/>
		</g>
		<g id="e">
			<path id="Layer" class="s0" d="m185.5 634.3q1.1-1.6 2.5-2.4 1.4-0.8 3.1-0.8 2.9 0 4.4 1.8 1.5 1.8 1.5 5.2v10.2h-5.4v-8.8q0-0.2 0-0.4 0-0.2 0-0.6 0-1.8-0.5-2.6-0.5-0.8-1.7-0.8-1.6 0-2.4 1.3-0.8 1.3-0.8 3.6v8.3h-5.4v-8.8q0-2.8-0.5-3.6-0.5-0.8-1.7-0.8-1.6 0-2.4 1.3-0.9 1.3-0.9 3.6v8.3h-5.4v-16.8h5.4v2.4q1-1.4 2.3-2.1 1.3-0.7 2.8-0.7 1.8 0 3.1 0.8 1.3 0.9 2 2.4z"/>
		</g>
		<g id="g">
			<path id="Layer" fill-rule="evenodd" class="s0" d="m207.4 633.9q1.1-1.4 2.4-2.1 1.4-0.7 3.2-0.7 3.1 0 5.1 2.5 2 2.4 2 6.3 0 3.9-2 6.4-2 2.4-5.1 2.4-1.8 0-3.2-0.7-1.3-0.7-2.4-2.1v2.4h-5.4v-23.4h5.4zm3.6 10.9q1.7 0 2.6-1.2 0.9-1.3 0.9-3.7 0-2.4-0.9-3.7-0.9-1.2-2.6-1.2-1.8 0-2.7 1.2-0.9 1.3-0.9 3.7 0 2.4 0.9 3.7 0.9 1.2 2.7 1.2z"/>
		</g>
		<g id="a">
			<path id="Layer" fill-rule="evenodd" class="s0" d="m232 631.1q4.4 0 6.8 2.3 2.5 2.4 2.5 6.5 0 4.2-2.5 6.5-2.4 2.3-6.8 2.3-4.3 0-6.8-2.3-2.4-2.3-2.4-6.5 0-4.1 2.4-6.5 2.5-2.3 6.8-2.3zm0 3.8q-1.8 0-2.7 1.3-0.9 1.3-0.9 3.7 0 2.4 0.9 3.7 0.9 1.3 2.7 1.3 1.8 0 2.7-1.3 1-1.3 1-3.7 0-2.4-1-3.7-0.9-1.3-2.7-1.3z"/>
		</g>
		<g id="t">
			<path id="Layer" class="s0" d="m245.2 624.9h5.4v23.4h-5.4z"/>
		</g>
		<g id="s">
			<path id="Layer" class="s0" d="m268.9 632v4.1q-1.8-0.7-3.4-1.1-1.6-0.3-3-0.3-1.5 0-2.3 0.3-0.7 0.4-0.7 1.2 0 0.7 0.5 1 0.6 0.4 2.1 0.5l0.9 0.2q4.1 0.5 5.6 1.7 1.4 1.2 1.4 3.8 0 2.6-2 4-2 1.3-5.9 1.3-1.7 0-3.5-0.2-1.7-0.3-3.6-0.8v-4.1q1.6 0.8 3.3 1.2 1.7 0.4 3.4 0.4 1.6 0 2.4-0.5 0.8-0.4 0.8-1.3 0-0.7-0.6-1-0.5-0.4-2.1-0.6l-1-0.1q-3.6-0.5-5-1.7-1.5-1.2-1.5-3.7 0-2.6 1.9-3.9 1.8-1.3 5.6-1.3 1.5 0 3.1 0.2 1.6 0.2 3.6 0.7z"/>
		</g>
		<g id="r">
			<path id="Layer" class="s0" d="m-138.3 655.7v3.5h-3q-1.2 0-1.6 0.5-0.5 0.4-0.5 1.4v1.2h4.6v3.8h-4.6v13h-5.3v-13h-2.7v-3.8h2.7v-1.2q0-2.8 1.5-4.1 1.5-1.3 4.7-1.3z"/>
		</g>
		<g id="d">
			<path id="Layer" class="s0" d="m-123.5 666.8q-0.7-0.3-1.4-0.5-0.7-0.1-1.4-0.1-2.1 0-3.2 1.3-1.1 1.3-1.1 3.8v7.8h-5.4v-16.8h5.4v2.7q1-1.6 2.3-2.4 1.4-0.8 3.2-0.8 0.3 0 0.6 0.1 0.4 0 0.9 0.1z"/>
		</g>
		<g id="a">
			<path id="Layer" fill-rule="evenodd" class="s0" d="m-112.8 661.8q4.3 0 6.7 2.4 2.5 2.3 2.5 6.5 0 4.1-2.5 6.5-2.4 2.3-6.7 2.3-4.4 0-6.9-2.3-2.4-2.4-2.4-6.5 0-4.2 2.4-6.5 2.5-2.4 6.9-2.4zm0 3.9q-1.8 0-2.8 1.3-0.9 1.3-0.9 3.7 0 2.4 0.9 3.7 1 1.3 2.8 1.3 1.7 0 2.6-1.3 1-1.3 1-3.7 0-2.4-1-3.7-0.9-1.3-2.6-1.3z"/>
		</g>
		<g id="e">
			<path id="Layer" class="s0" d="m-84.1 665q1-1.5 2.4-2.3 1.4-0.9 3.1-0.9 2.9 0 4.4 1.8 1.5 1.8 1.5 5.2v10.3h-5.4v-8.8q0-0.2 0-0.4 0-0.2 0-0.6 0-1.8-0.5-2.6-0.5-0.8-1.7-0.8-1.5 0-2.3 1.3-0.9 1.2-0.9 3.6v8.3h-5.4v-8.8q0-2.8-0.5-3.6-0.5-0.8-1.7-0.8-1.6 0-2.4 1.3-0.8 1.2-0.8 3.6v8.3h-5.5v-16.8h5.5v2.4q1-1.4 2.2-2.1 1.3-0.8 2.9-0.8 1.7 0 3 0.9 1.4 0.8 2.1 2.3z"/>
		</g>
		<g id="c">
			<path id="Layer" class="s0" d="m-51.1 657.5v4.8h5.6v3.8h-5.6v7.1q0 1.2 0.5 1.6 0.5 0.4 1.8 0.4h2.8v3.9h-4.6q-3.2 0-4.5-1.3-1.4-1.4-1.3-4.6v-7.1h-2.7v-3.8h2.7v-4.8z"/>
		</g>
		<g id="q">
			<path id="Layer" class="s0" d="m-25.3 668.8v10.3h-5.4v-7.8q0-2.2-0.1-3.1-0.1-0.8-0.4-1.2-0.3-0.5-0.8-0.8-0.6-0.3-1.3-0.3-1.6 0-2.6 1.3-1 1.3-1 3.6v8.3h-5.3v-23.4h5.3v9q1.3-1.4 2.6-2.2 1.4-0.7 3-0.7 3 0 4.5 1.8 1.5 1.8 1.5 5.2z"/>
		</g>
		<g id="b">
			<path id="Layer" fill-rule="evenodd" class="s0" d="m-3.5 670.6v1.6h-12.6q0.2 1.8 1.4 2.8 1.1 0.9 3.2 0.9 1.7 0 3.5-0.5 1.8-0.5 3.7-1.5v4.2q-1.9 0.7-3.8 1-2 0.4-3.9 0.4-4.5 0-7.1-2.3-2.5-2.3-2.5-6.5 0-4.1 2.5-6.5 2.5-2.4 6.8-2.4 4 0 6.4 2.4 2.4 2.4 2.4 6.4zm-5.6-1.8q0-1.5-0.9-2.4-0.9-1-2.3-1-1.6 0-2.5 0.9-1 0.9-1.3 2.5z"/>
		</g>
		<g id="p">
			<path id="Layer" class="s0" d="m11.5 656.7h6.4l8.2 15.3v-15.3h5.5v22.4h-6.5l-8.1-15.4v15.4h-5.5z"/>
		</g>
		<g id="a">
			<path id="Layer" fill-rule="evenodd" class="s0" d="m45 661.8q4.4 0 6.8 2.4 2.4 2.3 2.4 6.5 0 4.1-2.4 6.5-2.4 2.3-6.8 2.3-4.3 0-6.8-2.3-2.5-2.4-2.5-6.5 0-4.2 2.5-6.5 2.5-2.4 6.8-2.4zm0 3.9q-1.8 0-2.7 1.3-1 1.3-1 3.7 0 2.4 1 3.7 0.9 1.3 2.7 1.3 1.8 0 2.7-1.3 0.9-1.3 0.9-3.7 0-2.4-0.9-3.7-0.9-1.3-2.7-1.3z"/>
		</g>
		<g id="o">
			<path id="Layer" class="s0" d="m58 672.5v-10.2h5.4v1.6q0 1.4 0 3.5-0.1 2-0.1 2.7 0 2.1 0.1 2.9 0.1 0.9 0.4 1.3 0.3 0.6 0.9 0.9 0.5 0.2 1.2 0.2 1.7 0 2.6-1.2 1-1.3 1-3.6v-8.3h5.4v16.8h-5.4v-2.5q-1.2 1.5-2.6 2.2-1.3 0.7-3 0.7-2.9 0-4.4-1.8-1.5-1.8-1.5-5.2z"/>
		</g>
		<g id="n">
			<path id="Layer" class="s0" d="m97 668.8v10.3h-5.4v-7.9q0-2.1-0.2-3 0-0.8-0.3-1.2-0.3-0.5-0.8-0.8-0.6-0.3-1.3-0.3-1.7 0-2.6 1.3-1 1.3-1 3.6v8.3h-5.4v-16.8h5.4v2.4q1.2-1.4 2.6-2.2 1.4-0.7 3-0.7 2.9 0 4.4 1.8 1.6 1.8 1.6 5.2z"/>
		</g>
		<g id="m">
			<path id="Layer" fill-rule="evenodd" class="s0" d="m112.9 656.7h9.6q4.3 0 6.6 1.9 2.3 1.9 2.3 5.4 0 3.5-2.3 5.4-2.3 1.9-6.6 1.9h-3.8v7.8h-5.8zm5.8 4.2v6.2h3.2q1.7 0 2.6-0.8 0.9-0.8 0.9-2.3 0-1.5-0.9-2.3-0.9-0.8-2.6-0.8z"/>
		</g>
		<g id="d">
			<path id="Layer" class="s0" d="m147.7 666.8q-0.7-0.3-1.4-0.5-0.7-0.1-1.4-0.1-2.1 0-3.2 1.3-1.1 1.3-1.1 3.8v7.8h-5.4v-16.8h5.4v2.7q1-1.6 2.4-2.4 1.3-0.8 3.2-0.8 0.3 0 0.6 0.1 0.3 0 0.9 0.1z"/>
		</g>
		<g id="a">
			<path id="Layer" fill-rule="evenodd" class="s0" d="m158.4 661.8q4.3 0 6.8 2.4 2.4 2.3 2.4 6.5 0 4.1-2.4 6.5-2.5 2.3-6.8 2.3-4.4 0-6.8-2.3-2.5-2.4-2.5-6.5 0-4.2 2.5-6.5 2.4-2.4 6.8-2.4zm0 3.9q-1.8 0-2.7 1.3-1 1.3-1 3.7 0 2.4 1 3.7 0.9 1.3 2.7 1.3 1.7 0 2.7-1.3 0.9-1.3 0.9-3.7 0-2.4-0.9-3.7-1-1.3-2.7-1.3z"/>
		</g>
		<g id="l">
			<path id="Layer" class="s0" d="m171.5 662.3h5.4v16.5q0 3.4-1.6 5.1-1.6 1.8-4.7 1.8h-2.7v-3.5h1q1.5 0 2-0.7 0.6-0.7 0.6-2.7zm0-6.6h5.4v4.4h-5.4z"/>
		</g>
		<g id="b">
			<path id="Layer" fill-rule="evenodd" class="s0" d="m198.9 670.6v1.6h-12.6q0.2 1.8 1.4 2.8 1.1 0.9 3.2 0.9 1.7 0 3.5-0.5 1.8-0.5 3.7-1.5v4.2q-1.9 0.7-3.8 1-2 0.4-3.9 0.4-4.5 0-7-2.3-2.6-2.3-2.6-6.5 0-4.1 2.5-6.5 2.5-2.4 6.8-2.4 4 0 6.4 2.4 2.4 2.4 2.4 6.4zm-5.6-1.8q0-1.5-0.9-2.4-0.8-1-2.3-1-1.5 0-2.5 0.9-1 0.9-1.2 2.5z"/>
		</g>
		<g id="k">
			<path id="Layer" class="s0" d="m216.5 662.8v4.4q-1.1-0.8-2.2-1.1-1.1-0.4-2.3-0.4-2.2 0-3.5 1.3-1.2 1.3-1.2 3.7 0 2.3 1.2 3.7 1.3 1.3 3.5 1.3 1.3 0 2.4-0.4 1.2-0.4 2.1-1.1v4.4q-1.2 0.4-2.5 0.7-1.3 0.2-2.6 0.2-4.6 0-7.1-2.3-2.6-2.4-2.6-6.5 0-4.2 2.6-6.5 2.5-2.4 7.1-2.4 1.3 0 2.6 0.3 1.3 0.2 2.5 0.7z"/>
		</g>
		<g id="c">
			<path id="Layer" class="s0" d="m227.1 657.5v4.8h5.5v3.8h-5.5v7.1q0 1.2 0.4 1.6 0.5 0.4 1.9 0.4h2.7v3.9h-4.6q-3.2 0-4.5-1.3-1.3-1.4-1.3-4.6v-7.1h-2.7v-3.8h2.7v-4.8z"/>
		</g>
	</g>
</svg>