<svg version="1.2" xmlns="http://www.w3.org/2000/svg" viewBox="0 0 345 449" width="345" height="449">
	<title>scroll-svg</title>
	<style>
		.s0 { fill: #000000 } 
	</style>
	<g id="Layer">
		<path id="Layer" fill-rule="evenodd" class="s0" d="m147.1 34.8c16.6-0.1 33.5 10.5 34.2 30.8l4.1 117.7 114.2 17c41.6 6.2 43.5 16.8 43.4 52.6v5.8l0.2 52c0.1 36.7-11.8 51.8-21.4 64-7.3 9.3-13.1 16.7-13.2 32.3-0.1 38.7-46.4 38.7-61.7 38.7h-61.4c-15.2 0-61.6 0-61.6-38.8-0.2-15.3-7.8-22.8-17.4-32.4-12.4-12.3-27.8-27.7-27.8-63.8 0-4.5-0.1-9.1-0.1-13.7-0.4-27.9-0.7-54.3 12.1-67.3 4.9-5 11.4-7.5 19.2-7.7l3.5-156.3c0.5-20.2 17.3-30.9 33.7-30.9zm0.1 12.9c-10.3 0-20.6 5.7-20.9 18.3l-4.6 211.3c-0.1 3.5-3 6.3-6.6 6.3-3.6-0.1-6.4-3-6.3-6.6l0.9-42c-4.2 0.2-7.3 1.4-9.8 3.8-9 9.2-8.7 34-8.4 58.1 0.1 4.6 0.1 9.2 0.1 13.8 0 30.8 12.3 42.9 24.1 54.7 10.3 10.2 20.9 20.9 21.1 41.5v0.1c0 12 5.6 25.8 48.7 25.8h61.4c43.2 0 48.7-13.8 48.8-29.9 0.2-16.1 8.2-26.3 16-36.2 9.2-11.7 18.6-23.7 18.5-55.9l-0.1-57.9c0-33 0.1-35-32.3-39.8l-119.6-17.7c-2.8-0.5-5.4-2.5-5.5-6.2l-4.3-123.2c-0.4-12.7-10.9-18.3-21.2-18.3z"/>
		<path id="Layer" class="s0" d="m41.4 6.4l-31.2 28.6c-2.6 2.4-2.8 6.5-0.4 9.1 1.3 1.4 3.1 2.1 4.8 2.1 1.6 0 3.2-0.6 4.4-1.7l20.4-18.7v93.1l-20.4-18.7c-2.6-2.4-6.7-2.2-9.2 0.4-2.4 2.6-2.2 6.8 0.4 9.1l31.2 28.7c3 2.7 6.4 2.2 8.8 0l31.2-28.7c2.6-2.3 2.8-6.5 0.4-9.1-2.4-2.6-6.5-2.8-9.1-0.4l-20.4 18.7v-93.1l20.4 18.7c1.2 1.1 2.8 1.7 4.3 1.7 1.8 0 3.5-0.7 4.8-2.1 2.4-2.6 2.2-6.7-0.4-9.1l-31.2-28.6c-3.2-3-6-2.6-8.8 0z"/>
		<g id="f">
			<path id="Layer" class="s0" d="m-83.2 597.1q-1.6 0.8-3.3 1.2-1.8 0.5-3.7 0.5-5.6 0-8.9-3.2-3.4-3.2-3.4-8.6 0-5.4 3.4-8.6 3.3-3.2 8.9-3.2 1.9 0 3.7 0.5 1.7 0.4 3.3 1.2v4.7q-1.6-1.1-3.2-1.6-1.5-0.5-3.3-0.5-3.1 0-4.9 2-1.8 2-1.8 5.5 0 3.5 1.8 5.5 1.8 2 4.9 2 1.8 0 3.3-0.5 1.6-0.5 3.2-1.6z"/>
		</g>
		<g id="e">
			<path id="Layer" class="s0" d="m-65.9 586q-0.7-0.4-1.4-0.5-0.7-0.2-1.5-0.2-2.1 0-3.2 1.3-1.1 1.4-1.1 3.9v7.8h-5.5v-17h5.5v2.8q1-1.7 2.4-2.4 1.3-0.8 3.3-0.8 0.2 0 0.5 0 0.4 0.1 1 0.1z"/>
		</g>
		<g id="b">
			<path id="Layer" fill-rule="evenodd" class="s0" d="m-46.2 589.8v1.5h-12.7q0.2 1.9 1.3 2.9 1.2 1 3.4 1 1.7 0 3.5-0.5 1.8-0.6 3.7-1.6v4.2q-2 0.7-3.9 1.1-1.9 0.4-3.8 0.4-4.7 0-7.2-2.4-2.6-2.3-2.6-6.6 0-4.1 2.5-6.5 2.5-2.4 6.9-2.4 4.1 0 6.5 2.4 2.4 2.4 2.4 6.5zm-5.6-1.8q0-1.6-0.9-2.5-0.9-1-2.4-1-1.6 0-2.6 0.9-0.9 0.9-1.2 2.6z"/>
		</g>
		<g id="j">
			<path id="Layer" fill-rule="evenodd" class="s0" d="m-26.2 588.6v9.7h-5.5v-2.5q-1.1 1.6-2.4 2.3-1.4 0.7-3.3 0.7-2.7 0-4.3-1.6-1.7-1.5-1.7-4 0-3 2.1-4.4 2-1.4 6.4-1.4h3.2v-0.4q0-1.3-1-1.9-1-0.6-3.2-0.6-1.7 0-3.2 0.4-1.5 0.3-2.8 1v-4.1q1.7-0.5 3.5-0.7 1.8-0.2 3.5-0.2 4.6 0 6.7 1.8 2 1.8 2 5.9zm-8.3 2.1q-1.7 0-2.6 0.6-0.8 0.5-0.8 1.7 0 1 0.7 1.6 0.7 0.6 1.9 0.6 1.5 0 2.6-1.1 1-1.1 1-2.8v-0.6z"/>
		</g>
		<g id="a">
			<path id="Layer" class="s0" d="m-15.2 576.5v4.8h5.6v3.9h-5.6v7.2q0 1.2 0.5 1.6 0.5 0.4 1.9 0.4h2.8v3.9h-4.7q-3.2 0-4.6-1.3-1.3-1.4-1.3-4.6v-7.2h-2.7v-3.9h2.7v-4.8z"/>
		</g>
		<g id="b">
			<path id="Layer" fill-rule="evenodd" class="s0" d="m10.7 589.8v1.5h-12.7q0.2 1.9 1.4 2.9 1.2 1 3.3 1 1.7 0 3.5-0.5 1.8-0.6 3.7-1.6v4.2q-1.9 0.7-3.8 1.1-2 0.4-3.9 0.4-4.6 0-7.2-2.4-2.5-2.3-2.5-6.6 0-4.1 2.5-6.5 2.5-2.4 6.9-2.4 4 0 6.4 2.4 2.4 2.4 2.4 6.5zm-5.6-1.8q0-1.6-0.9-2.5-0.9-1-2.3-1-1.6 0-2.6 0.9-1 0.9-1.2 2.6z"/>
		</g>
		<g id="i">
			<path id="Layer" fill-rule="evenodd" class="s0" d="m26.4 583.8v-9.1h5.5v23.6h-5.5v-2.4q-1.1 1.5-2.5 2.2-1.3 0.7-3.1 0.7-3.1 0-5.2-2.5-2-2.5-2-6.5 0-3.9 2-6.4 2.1-2.5 5.2-2.5 1.8 0 3.1 0.7 1.4 0.7 2.5 2.2zm-3.5 11q1.7 0 2.6-1.2 0.9-1.3 0.9-3.8 0-2.4-0.9-3.7-0.9-1.2-2.6-1.2-1.8 0-2.7 1.2-0.9 1.3-0.9 3.7 0 2.5 0.9 3.8 0.9 1.2 2.7 1.2z"/>
		</g>
		<g id="h">
			<path id="Layer" fill-rule="evenodd" class="s0" d="m53.4 583.8q1.1-1.5 2.5-2.2 1.3-0.7 3.1-0.7 3.2 0 5.2 2.5 2 2.5 2 6.4 0 4-2 6.5-2 2.5-5.2 2.5-1.8 0-3.1-0.7-1.4-0.7-2.5-2.2v2.4h-5.4v-23.6h5.4zm3.6 11q1.7 0 2.7-1.3 0.9-1.3 0.9-3.7 0-2.4-0.9-3.7-1-1.3-2.7-1.3-1.7 0-2.7 1.3-0.9 1.3-0.9 3.7 0 2.4 0.9 3.7 1 1.3 2.7 1.3z"/>
		</g>
		<g id="g">
			<path id="Layer" class="s0" d="m68 581.3h5.4l4.6 11.6 3.9-11.6h5.4l-7.1 18.6q-1.1 2.9-2.5 4-1.5 1.1-3.8 1.2h-3.2v-3.6h1.7q1.4 0 2-0.5 0.7-0.4 1-1.5l0.2-0.5z"/>
		</g>
		<g id="f">
			<path id="Layer" class="s0" d="m119.6 597.1q-1.6 0.8-3.4 1.2-1.7 0.5-3.6 0.5-5.7 0-9-3.2-3.3-3.2-3.3-8.6 0-5.4 3.3-8.6 3.3-3.2 9-3.2 1.9 0 3.6 0.5 1.8 0.4 3.4 1.2v4.7q-1.7-1.1-3.2-1.6-1.6-0.5-3.4-0.5-3.1 0-4.9 2-1.8 2-1.8 5.5 0 3.5 1.8 5.5 1.8 2 4.9 2 1.8 0 3.4-0.5 1.5-0.5 3.2-1.6z"/>
		</g>
		<g id="d">
			<path id="Layer" class="s0" d="m124 591.7v-10.4h5.5v1.7q0 1.4-0.1 3.5 0 2.1 0 2.8 0 2 0.1 2.9 0.1 0.9 0.4 1.4 0.3 0.5 0.9 0.8 0.5 0.3 1.2 0.3 1.7 0 2.7-1.3 0.9-1.3 0.9-3.7v-8.4h5.5v17h-5.5v-2.4q-1.2 1.5-2.6 2.2-1.3 0.7-3 0.7-2.9 0-4.5-1.8-1.5-1.8-1.5-5.3z"/>
		</g>
		<g id="s">
			<path id="Layer" fill-rule="evenodd" class="s0" d="m151.8 595.9v8.9h-5.5v-23.5h5.5v2.5q1.1-1.5 2.4-2.2 1.4-0.7 3.2-0.7 3.1 0 5.1 2.5 2.1 2.5 2.1 6.4 0 4-2.1 6.5-2 2.5-5.1 2.5-1.8 0-3.2-0.7-1.3-0.7-2.4-2.2zm3.6-11q-1.8 0-2.7 1.2-0.9 1.3-0.9 3.7 0 2.5 0.9 3.7 0.9 1.3 2.7 1.3 1.7 0 2.6-1.2 1-1.3 1-3.8 0-2.4-1-3.7-0.9-1.2-2.6-1.2z"/>
		</g>
		<g id="d">
			<path id="Layer" class="s0" d="m168.4 591.7v-10.4h5.5v1.7q0 1.4 0 3.5-0.1 2.1-0.1 2.8 0 2 0.1 2.9 0.1 0.9 0.4 1.4 0.3 0.5 0.9 0.8 0.5 0.3 1.2 0.3 1.7 0 2.7-1.3 1-1.3 1-3.7v-8.4h5.4v17h-5.4v-2.4q-1.3 1.5-2.6 2.2-1.4 0.7-3.1 0.7-2.9 0-4.5-1.8-1.5-1.8-1.5-5.3z"/>
		</g>
		<g id="a">
			<path id="Layer" class="s0" d="m196.7 576.5v4.8h5.6v3.9h-5.6v7.2q0 1.2 0.4 1.6 0.5 0.4 1.9 0.4h2.8v3.9h-4.7q-3.2 0-4.5-1.3-1.4-1.4-1.4-4.6v-7.2h-2.7v-3.9h2.7v-4.8z"/>
		</g>
		<g id="c">
			<path id="Layer" fill-rule="evenodd" class="s0" d="m213.7 580.9q4.4 0 6.9 2.4 2.4 2.3 2.4 6.5 0 4.2-2.4 6.6-2.5 2.4-6.9 2.4-4.4 0-6.9-2.4-2.5-2.4-2.5-6.6 0-4.2 2.5-6.5 2.5-2.4 6.9-2.4zm0 3.9q-1.8 0-2.8 1.3-0.9 1.3-0.9 3.7 0 2.5 0.9 3.8 1 1.3 2.8 1.3 1.8 0 2.7-1.3 1-1.3 1-3.8 0-2.4-1-3.7-0.9-1.3-2.7-1.3z"/>
		</g>
		<g id="r">
			<path id="Layer" class="s0" d="m-90.2 605.8v3.6h-3q-1.2 0-1.6 0.4-0.5 0.4-0.5 1.4v1.2h4.7v3.9h-4.7v13.1h-5.4v-13.1h-2.7v-3.9h2.7v-1.2q0-2.7 1.5-4.1 1.6-1.3 4.8-1.3z"/>
		</g>
		<g id="e">
			<path id="Layer" class="s0" d="m-75.2 617.1q-0.7-0.4-1.4-0.5-0.7-0.2-1.5-0.2-2.1 0-3.2 1.4-1.1 1.3-1.1 3.8v7.8h-5.5v-17h5.5v2.8q1-1.6 2.4-2.4 1.3-0.8 3.3-0.8 0.2 0 0.5 0.1 0.4 0 1 0z"/>
		</g>
		<g id="c">
			<path id="Layer" fill-rule="evenodd" class="s0" d="m-64.4 612q4.4 0 6.8 2.4 2.5 2.4 2.5 6.6 0 4.2-2.5 6.5-2.4 2.4-6.8 2.4-4.4 0-6.9-2.4-2.5-2.3-2.5-6.5 0-4.2 2.5-6.6 2.5-2.4 6.9-2.4zm0 3.9q-1.8 0-2.8 1.3-0.9 1.3-0.9 3.8 0 2.4 0.9 3.7 1 1.3 2.8 1.3 1.8 0 2.7-1.3 1-1.3 1-3.7 0-2.5-1-3.8-0.9-1.3-2.7-1.3z"/>
		</g>
		<g id="q">
			<path id="Layer" class="s0" d="m-35.4 615.3q1.1-1.6 2.5-2.4 1.4-0.9 3.1-0.9 2.9 0 4.5 1.8 1.5 1.8 1.5 5.3v10.3h-5.5v-8.8q0-0.2 0-0.4 0.1-0.3 0.1-0.6 0-1.9-0.6-2.7-0.5-0.8-1.7-0.8-1.5 0-2.4 1.3-0.8 1.3-0.9 3.7v8.3h-5.4v-8.8q0-2.9-0.5-3.7-0.5-0.8-1.7-0.8-1.6 0-2.5 1.3-0.8 1.3-0.8 3.7v8.3h-5.5v-17h5.5v2.5q1-1.4 2.3-2.1 1.3-0.8 2.9-0.8 1.7 0 3.1 0.9 1.3 0.8 2 2.4z"/>
		</g>
		<g id="a">
			<path id="Layer" class="s0" d="m-2 607.6v4.8h5.7v3.9h-5.7v7.2q0 1.2 0.5 1.6 0.5 0.5 1.9 0.5h2.8v3.8h-4.7q-3.2 0-4.5-1.3-1.4-1.3-1.4-4.6v-7.2h-2.7v-3.9h2.7v-4.8z"/>
		</g>
		<g id="p">
			<path id="Layer" class="s0" d="m24.1 619.1v10.3h-5.5v-7.9q0-2.2-0.1-3-0.1-0.8-0.3-1.3-0.3-0.5-0.9-0.8-0.5-0.3-1.2-0.3-1.7 0-2.7 1.3-1 1.4-1 3.7v8.3h-5.4v-23.6h5.4v9.1q1.2-1.5 2.6-2.2 1.4-0.7 3.1-0.7 2.9 0 4.5 1.8 1.5 1.8 1.5 5.3z"/>
		</g>
		<g id="b">
			<path id="Layer" fill-rule="evenodd" class="s0" d="m46.1 620.9v1.5h-12.7q0.2 2 1.4 2.9 1.2 1 3.3 1 1.7 0 3.5-0.5 1.8-0.5 3.7-1.6v4.2q-1.9 0.8-3.9 1.1-1.9 0.4-3.8 0.4-4.6 0-7.2-2.4-2.5-2.3-2.5-6.5 0-4.2 2.5-6.6 2.5-2.4 6.9-2.4 4 0 6.4 2.4 2.4 2.5 2.4 6.5zm-5.6-1.8q0-1.6-0.9-2.5-0.9-1-2.3-1-1.6 0-2.6 0.9-1 0.9-1.2 2.6z"/>
		</g>
		<g id="o">
			<path id="Layer" class="s0" d="m61.3 606.8h6.5l8.3 15.5v-15.5h5.5v22.6h-6.5l-8.2-15.5v15.5h-5.6z"/>
		</g>
		<g id="c">
			<path id="Layer" fill-rule="evenodd" class="s0" d="m95.2 612q4.4 0 6.9 2.4 2.4 2.4 2.4 6.6 0 4.2-2.4 6.5-2.5 2.4-6.9 2.4-4.4 0-6.9-2.4-2.5-2.3-2.5-6.5 0-4.2 2.5-6.6 2.5-2.4 6.9-2.4zm0 3.9q-1.8 0-2.8 1.3-0.9 1.3-0.9 3.8 0 2.4 0.9 3.7 1 1.3 2.8 1.3 1.8 0 2.7-1.3 1-1.3 1-3.7 0-2.5-1-3.8-0.9-1.3-2.7-1.3z"/>
		</g>
		<g id="d">
			<path id="Layer" class="s0" d="m108.3 622.8v-10.4h5.5v1.7q0 1.4 0 3.5-0.1 2.1-0.1 2.8 0 2 0.1 3 0.1 0.9 0.4 1.3 0.3 0.5 0.9 0.8 0.5 0.3 1.2 0.3 1.7 0 2.7-1.3 1-1.3 1-3.7v-8.4h5.4v17h-5.4v-2.4q-1.3 1.5-2.7 2.2-1.3 0.7-3 0.7-2.9 0-4.5-1.8-1.5-1.8-1.5-5.3z"/>
		</g>
		<g id="n">
			<path id="Layer" class="s0" d="m147.7 619.1v10.3h-5.4v-7.9q0-2.2-0.1-3-0.1-0.8-0.4-1.3-0.3-0.5-0.9-0.8-0.5-0.3-1.2-0.3-1.7 0-2.7 1.3-0.9 1.4-0.9 3.7v8.3h-5.5v-17h5.5v2.5q1.2-1.5 2.6-2.2 1.4-0.7 3-0.7 3 0 4.5 1.8 1.5 1.8 1.5 5.3z"/>
		</g>
		<g id="m">
			<path id="Layer" fill-rule="evenodd" class="s0" d="m163.9 606.8h9.7q4.3 0 6.6 1.9 2.3 1.9 2.3 5.5 0 3.5-2.3 5.4-2.3 2-6.6 2h-3.9v7.8h-5.8zm5.8 4.3v6.3h3.2q1.7 0 2.7-0.8 0.9-0.8 0.9-2.4 0-1.5-0.9-2.3-1-0.8-2.7-0.8z"/>
		</g>
		<g id="e">
			<path id="Layer" class="s0" d="m199 617.1q-0.7-0.4-1.4-0.5-0.7-0.2-1.4-0.2-2.1 0-3.2 1.4-1.2 1.3-1.2 3.8v7.8h-5.4v-17h5.4v2.8q1.1-1.6 2.4-2.4 1.4-0.8 3.3-0.8 0.3 0 0.6 0.1 0.3 0 0.9 0z"/>
		</g>
		<g id="c">
			<path id="Layer" fill-rule="evenodd" class="s0" d="m209.8 612q4.4 0 6.9 2.4 2.5 2.4 2.5 6.6 0 4.2-2.5 6.5-2.5 2.4-6.9 2.4-4.4 0-6.9-2.4-2.4-2.3-2.4-6.5 0-4.2 2.4-6.6 2.5-2.4 6.9-2.4zm0 3.9q-1.8 0-2.7 1.3-1 1.3-1 3.8 0 2.4 1 3.7 0.9 1.3 2.7 1.3 1.8 0 2.8-1.3 0.9-1.3 0.9-3.7 0-2.5-0.9-3.8-1-1.3-2.8-1.3z"/>
		</g>
		<g id="l">
			<path id="Layer" class="s0" d="m223.1 612.4h5.5v16.7q0 3.5-1.7 5.3-1.6 1.8-4.7 1.8h-2.7v-3.6h0.9q1.6 0 2.1-0.7 0.6-0.7 0.6-2.8zm0-6.6h5.5v4.5h-5.5z"/>
		</g>
		<g id="b">
			<path id="Layer" fill-rule="evenodd" class="s0" d="m250.8 620.9v1.5h-12.8q0.2 2 1.4 2.9 1.2 1 3.3 1 1.8 0 3.6-0.5 1.8-0.5 3.7-1.6v4.2q-2 0.8-3.9 1.1-1.9 0.4-3.9 0.4-4.6 0-7.1-2.4-2.6-2.3-2.6-6.5 0-4.2 2.5-6.6 2.5-2.4 6.9-2.4 4.1 0 6.5 2.4 2.4 2.5 2.4 6.5zm-5.6-1.8q0-1.6-0.9-2.5-0.9-1-2.4-1-1.6 0-2.6 0.9-0.9 0.9-1.2 2.6z"/>
		</g>
		<g id="k">
			<path id="Layer" class="s0" d="m268.6 613v4.4q-1.1-0.8-2.2-1.1-1.1-0.4-2.3-0.4-2.3 0-3.6 1.3-1.2 1.4-1.2 3.8 0 2.3 1.2 3.7 1.3 1.3 3.6 1.3 1.3 0 2.4-0.4 1.2-0.4 2.1-1.1v4.4q-1.2 0.5-2.6 0.7-1.3 0.3-2.6 0.3-4.6 0-7.2-2.4-2.6-2.3-2.6-6.5 0-4.3 2.6-6.6 2.6-2.4 7.2-2.4 1.3 0 2.6 0.3 1.3 0.2 2.6 0.7z"/>
		</g>
		<g id="a">
			<path id="Layer" class="s0" d="m279.3 607.6v4.8h5.6v3.9h-5.6v7.2q0 1.2 0.4 1.6 0.5 0.5 1.9 0.5h2.8v3.8h-4.7q-3.2 0-4.5-1.3-1.4-1.3-1.4-4.6v-7.2h-2.7v-3.9h2.7v-4.8z"/>
		</g>
	</g>
</svg>